/* XPM */
static char *_2ca844d7a7140a79f02c133dd18add2AQ48wjGAk81hiZZK[] = {
/* columns rows colors chars-per-pixel */
"32 32 34 1 ",
"  c None",
". c #7C3B3B",
"X c #754B4B",
"o c #7E5F5F",
"O c #8D0000",
"+ c #9D0000",
"@ c #B00000",
"# c #C80000",
"$ c #E70000",
"% c #B8672F",
"& c #E95A00",
"* c #EA411D",
"= c #CC7100",
"- c #EA7100",
"; c #CE5225",
": c #EC5225",
"> c #D0672F",
", c #EE672F",
"< c #874B4B",
"1 c #955F5F",
"2 c #897878",
"3 c #A77878",
"4 c #CD8F00",
"5 c #EB8F00",
"6 c #CFB400",
"7 c #EDB400",
"8 c #D2823B",
"9 c #F0823B",
"0 c #EFE300",
"q c #FFF300",
"w c #D5A44B",
"e c #F3A44B",
"r c #F7CF5F",
"t c #FFFF87",
/* pixels */
"                                ",
"                                ",
"                                ",
"                                ",
"                                ",
"             o2@@@              ",
"            o@#@@@@#oo          ",
"         22@@@######@@oo2       ",
"       o@####$$$$$$$#@@@o       ",
"       ++@$,:9eeeee9$###@       ",
"      o@+@99,eeer779ee###@      ",
"      @@#r9970r0000rrr8#@@X     ",
"    o+@##9770000000rrrr8#@+     ",
"    X@#$*9700r00tttttrr88++2    ",
"    O@$-&e00tttttttttt0r8@+     ",
"    @#$&0rrttttttttttt0rr##     ",
"    +#-500qtttttttttt0rrre#     ",
"    +@#$70qtttqqttttrrr00e#     ",
"    @@###00ttqqqttttr0770r#     ",
"    oO@##40tttttttt0r077rw#     ",
"    2@#$#=00ttttttt00077ew2     ",
"      @#>5700000r000000e8#      ",
"       #>;e700000000eeee##      ",
"        #895700000007ee$#2      ",
"        1##>8r07996678@@        ",
"         2#@>we9>>>%@@@         ",
"          2<##+++@  @+          ",
"            31.XX               ",
"                                ",
"                                ",
"                                ",
"                                "
};
