/* XPM */
static char *_55eab2d494445d2bec771b2e7744575P2l4wjs4GPR8GKRv[] = {
/* columns rows colors chars-per-pixel */
"30 30 55 1 ",
"  c None",
". c #754B4B",
"X c #7E5F5F",
"o c #B31D00",
"O c #BC3E00",
"+ c #933838",
"@ c #A02121",
"# c #915A00",
"$ c #A84300",
"% c #B45400",
"& c #B8693A",
"* c #C74F00",
"= c #C36A00",
"- c #CE5920",
"; c #C66120",
": c #C26E20",
"> c #CE6C20",
", c #D56A20",
"< c #D37420",
"1 c #DA7E20",
"2 c #C56839",
"3 c #9A4747",
"4 c #BF794A",
"5 c #897878",
"6 c #E94F79",
"7 c #B58F00",
"8 c #BA8420",
"9 c #D68600",
"0 c #CFB400",
"q c #CF8120",
"w c #D88E20",
"e c #DC8B33",
"r c #DB9533",
"t c #E39E20",
"y c #E19433",
"u c #E59A33",
"i c #DFBA20",
"p c #DFB033",
"a c #E4A333",
"s c #EBAD33",
"d c #E9A73E",
"f c #E8AB3E",
"g c #E8BD33",
"h c #EBB03E",
"j c #EFB53E",
"k c #EFE300",
"l c #F2D620",
"z c #F4CE33",
"x c #F5C93E",
"c c #B59667",
"v c #D5974C",
"b c #C48454",
"n c #E00097",
"m c #FB4FB7",
"M c #979797",
/* pixels */
"                              ",
"                              ",
"                              ",
"                              ",
"             000k   5         ",
"            ii7770 5005       ",
"         k0wiga%77  ipX       ",
"        k0qwsutt=0 mzav5      ",
"       50==ssb1===  saa2      ",
"      XX00txhv353  k0ay6n     ",
"     07X5klzaw3    k054nn     ",
"    k0770biii       5=9nkk    ",
"    0700=9w         0==9kk    ",
"      Mwq=          77%=kk    ",
"      ahaq         550==w0    ",
"    5wwdag05        553wwi    ",
"    3%yyjllk        000qcm    ",
"    5+;rdzzk        0==ii5    ",
"     .8efjxl7X     53O<ti0    ",
"     X#:>jtt00k   905*tti0    ",
"      7$OO,,1kklkt99kk9i75    ",
"     5X7Oo-,1tllziw070005     ",
"     55  @&2w0illi07.555      ",
"         5Xc557ikk000         ",
"              5550000         ",
"                55            ",
"                              ",
"                              ",
"                              ",
"                              "
};
