/* XPM */
static char *_258c16ba9ca4e6c9a910655b29d9ff6U052mq0Z4GBiapKg[] = {
/* columns rows colors chars-per-pixel */
"24 24 42 1 ",
"  c None",
". c #7E0000",
"X c #8C0000",
"o c #A40000",
"O c #CB0000",
"+ c #AF4B1B",
"@ c #B74B1B",
"# c #C54B1B",
"$ c #DC4B1B",
"% c #D1782B",
"& c #D9782B",
"* c #E6782B",
"= c #E59334",
"- c #EC9334",
"; c #ECA33A",
": c #F0A33A",
"> c #F0AC3D",
", c #F2AC3D",
"< c #F4B23F",
"1 c #EEA856",
"2 c #F2B85C",
"3 c #F2C15F",
"4 c #F4C15F",
"5 c #F5C761",
"6 c #F6CA62",
"7 c #F7D776",
"8 c #F8D977",
"9 c #F6D57F",
"0 c #F8DA78",
"q c #F7DB81",
"w c #F8DE82",
"e c #F8E083",
"r c #F9E184",
"t c #F9E284",
"y c #F9E48A",
"u c #F9E68B",
"i c #F9E78B",
"p c #F9E88F",
"a c #F9E98F",
"s c #F9EA8F",
"d c #F9EB92",
"f c #F9EC92",
/* pixels */
"                        ",
"                        ",
"                        ",
"                        ",
"            OO          ",
"          o@@@o         ",
"        o&****$O        ",
"       o&&-687*$O       ",
"      O#>5rurr21#o      ",
"      #;>7rdfrq1#oX     ",
"     O@;47auar92#oX     ",
"     .+450uuua9-&oX     ",
"     X@446ruuuq-&oX     ",
"     X#=-58urau>&X      ",
"     O##=3wurq7<%.      ",
"      O#%%8eqq6:@X      ",
"       O@%4544>-oo      ",
"        O#&====$O       ",
"         Oo##OO         ",
"                        ",
"                        ",
"                        ",
"                        ",
"                        "
};
