/* XPM */
static char *_7512224313b44c1ed4785cb9d67712aj7Ul88fnmf9qLFA3[] = {
/* columns rows colors chars-per-pixel */
"28 28 143 2 ",
"   c None",
".  c #7E0000",
"X  c #7A3434",
"o  c #8C0000",
"O  c #800A00",
"+  c #8F1100",
"@  c #A40000",
"#  c #BA0000",
"$  c #A91D00",
"%  c #AF1E1E",
"&  c #932200",
"*  c #993D00",
"=  c #AE3400",
"-  c #B03A00",
";  c #C80000",
":  c #CB0000",
">  c #D53100",
",  c #D33400",
"<  c #FA2400",
"1  c #F52C00",
"2  c #EC3A00",
"3  c #F83D00",
"4  c #9B4600",
"5  c #89411E",
"6  c #B24600",
"7  c #B44B00",
"8  c #B14D09",
"9  c #B65900",
"0  c #B75C00",
"q  c #B86400",
"w  c #B96700",
"e  c #BB6F00",
"r  c #BB7100",
"t  c #BC7600",
"y  c #AC7C1E",
"u  c #9E6F34",
"i  c #D84C00",
"p  c #DD5800",
"a  c #ED4600",
"s  c #F25900",
"d  c #F35C00",
"f  c #F55B09",
"g  c #F55F09",
"h  c #CF7209",
"j  c #E06200",
"k  c #F46400",
"l  c #F56700",
"z  c #F66309",
"x  c #F06809",
"c  c #E37700",
"v  c #E67F00",
"b  c #F77100",
"n  c #F87600",
"m  c #F97700",
"M  c #F47809",
"N  c #F57E09",
"B  c #F7661F",
"V  c #F06E1B",
"C  c #F76C1B",
"Z  c #E3721B",
"A  c #E87C1E",
"S  c #F2781B",
"D  c #D96F34",
"F  c #F07529",
"G  c #855959",
"H  c #D38F1B",
"J  c #E98209",
"K  c #F68509",
"L  c #F78809",
"P  c #F4880E",
"I  c #E89000",
"U  c #EA9600",
"Y  c #EC9C00",
"T  c #EC9109",
"R  c #EE9809",
"E  c #EC8018",
"W  c #EC851B",
"Q  c #F08313",
"!  c #F4801B",
"~  c #F38819",
"^  c #F5891B",
"/  c #F68C1B",
"(  c #F68D1B",
")  c #F78F1B",
"_  c #F59019",
"`  c #F8921B",
"'  c #F8941B",
"]  c #F8951B",
"[  c #F19F19",
"{  c #EEA900",
"}  c #F0AE00",
"|  c #F0A009",
" . c #F1A309",
".. c #F1A809",
"X. c #F2AA09",
"o. c #F1B800",
"O. c #F2BB00",
"+. c #F3BF00",
"@. c #F4B309",
"#. c #F5BB09",
"$. c #F6BD09",
"%. c #EFA51B",
"&. c #F3AB19",
"*. c #F0A81B",
"=. c #F4AF19",
"-. c #F2B31B",
";. c #F4BB1B",
":. c #F4BD1B",
">. c #F2B91F",
",. c #E78122",
"<. c #EC942E",
"1. c #F29926",
"2. c #F09729",
"3. c #F5972B",
"4. c #E38C3C",
"5. c #E99234",
"6. c #F4AB22",
"7. c #F0A52B",
"8. c #F5BB2B",
"9. c #F5BF2B",
"0. c #F4C700",
"q. c #F6CA00",
"w. c #F6CF00",
"e. c #F7D100",
"r. c #F8D800",
"t. c #F9DA00",
"y. c #F1C412",
"u. c #F3C512",
"i. c #F1C314",
"p. c #F5C21B",
"a. c #F6C31B",
"s. c #F8CD1B",
"d. c #E9DF1E",
"f. c #EDE218",
"g. c #D7CF38",
"h. c #DAD234",
"j. c #EDCF2E",
"k. c #F7C52B",
"l. c #E1D82A",
"z. c #F1D229",
"x. c #E9CC34",
"c. c #E5C83A",
"v. c #C1BC59",
/* pixels */
"                                                        ",
"                                                        ",
"                      ;                                 ",
"                    ; @ @     - ; ;                     ",
"              @ ; ; - - u u r Y j j @ G G               ",
"            @ # ; j Y r r d.Y Y Y 0 0 u u G             ",
"            % # ; V Y q.+.+.Y d h.Y h r r 0 ;           ",
"        G o o ; 4.S ( O.e.t.b d D R &.&.H 0 0 ;         ",
"        o o & c ( ' ^ p.9.e.q.2 A _ 6.&.:.H @ G         ",
"        @ & 9 w.{ ' ( 3.8.k.%.m A ~ 6.6.&.- - -         ",
"      @ @ 7 0.w.O.a ! 3.8.;.' ` _ [ &.Y j j - & j       ",
"      @ 7 w 0.{ k 1 ! F 3.7.p.f &.=.-.:.Y Y - - u       ",
"        7 0.t k s 5.B 2.^ k g M x p.s.q.Y Y 0 y u       ",
"        l.w i , <.1.c.^ S < 3 g E } } e.} Y - 0         ",
"      G 7 4 e Z ;.j.z.x.( C < L ,.A l.g.} Y 0           ",
"      @ o & * O.%.t.u.>.` b z @.N W k f.} Y -           ",
"      @ @ + + 9 { | u.i.$.3 m P @.k q.t.d.Y j - v.      ",
"        ; @ $ $ c T ..#.m k K @.@.} q.} +.j j j         ",
"            G @ = 6 J I U Q } $.@.| v 0 Y 0 - ;         ",
"                $ 6 6 c U v ..| | 7 & & & 0 - G         ",
"                G $ p p > v v 8 & & & & @ - G           ",
"                    ;     $ O . . X 5 @ @               ",
"                            @ . o @                     ",
"                            G ; ;                       ",
"                                                        ",
"                                                        ",
"                                                        ",
"                                                        "
};
