/* XPM */
static char *result[] = {
/* columns rows colors chars-per-pixel */
"64 64 8 1 ",
"  c #100D0D",
". c #1B1616",
"X c #2D2727",
"o c #591010",
"O c #BC1313",
"+ c #DBCDCD",
"@ c #F0EAEA",
"# c None",
/* pixels */
"################################################################",
"#########################.............##########################",
"######################.............X....########################",
"####################...............XXX.X.#######################",
"##################................XXXXXXXX######################",
"#################...............XXXXXXXXXXX#####################",
"#################.....X....XXXXXXXXXXXXXXXXX####################",
"################......XXX.XXXXXXXXXXXXXXXXXX####################",
"################.....XXXXXXXXXXXXX   XXXXXXXX###################",
"###############....XX  XXXXXXXXXX    XXXXXXXX###################",
"##############.....X    XXXXXXXXX @  XXXXXXXX###################",
"##############....XX @  XXXXXXXXX   XXXXXXXXXX##################",
"##############.....X    XXXXXXXXXX  XXXXXXXXXX##################",
"##############......   XXXXXXXXXXXXXXXXXXXXXXX##################",
"#############.......XXXXXXXXXXXXXXXXXXXXXXXXXXX#################",
"#############......XXXXXXXXXXXXXXXXXXXXXXXXXXXX#################",
"#############......XXXXXXXXX     XXXXXXXXXXXXXX#################",
"#############.....XXXXXXXX       ++XXXXXXXXXXXXX################",
"#############.....XXXXXX++       ++XXXXXXXXXXXXX################",
"#############.....XXXXXX++     OO +XXXXXXXXXXXXXX###############",
"#############.....XXXXXX+oooo  OOXXXXXXXXXXXXXXXX###############",
"#############.....XXXXXX+XoooooOXXXXXXXXXXXXXXXXXX##############",
"#############.....XXXXXXXXXooooOXXXXXXXXXXXXXXXXXXX#############",
"############..X...XXXXXXXXXXoooXXXXXXXXXXXXXXXXXXXXX############",
"############......XXXXXXXXXXXooXXXXXXXXXXXXXXXXXXXXX############",
"###########...XXXXXXXXXXXXXXXoXXXXXXXXXXXXXXXXXXXXXXX###########",
"###########...XXXXXXXXXXXXXXXXXXXXXXXXXXXXXXXXXXXXXXX###########",
"###########....XXXXXXXXXXXXXXXXXXXXXXXXXXXXXXXXXXXXXXX##########",
"###########...XXXXXXXXXXXXXXXXXXXXXXXXXXXXXXXXXXXXXXXXX#########",
"##########....XXXXXXXXXXXXXXXXXXXXXXXXXXXXX.XXXXXXXXXXX#########",
"########## ...XXXXXXX  XXXXXXXXXXXXXXXXXXX ..XXXXXXXXXX#########",
"########## ...XXXXXXXX  XXXXXXXXXXXXXXXXXX ..XXXXXXXXXX#########",
"########## ....XXXXXXXX XXXXXXXXXXXXXXXXXX ...XXXXXXXXX#########",
"########## .....XXXXXXX XXXXXXXXXXXXXXXXXX ...XXXXXXXXX#########",
"########## .....XXXXXXX XXXXXXXXXXXXXXXXXX ....XXXXXXXX#########",
"########## ...XXXXXXXXX XXXXXXXXXXXXXXXXXX ....XXXXXXX #########",
"##########. ....XXXXXXX XXXXXXXXXXXXXXXXXX ...XXXXXXXX #########",
"###########  ...XXXXXXX XXXXXXXXXXXXXXXXXX ...XXXXXXX X#########",
"############ .....XXXXX XXXXXXXXXXXXXXXXXX ...XXXXXX  ##########",
"############ .....XXXXX XXXXXXXXXXXXXXXXXX ...XXXXX XX##########",
"############.. ....XXXX XXXXXXXXXXXXXXXXXX ...XXX  XXX##########",
"############..X  ..XXXX XXXXXXXXXXXXXXXXXXX .XXX XXXXX##########",
"############...XX ..XX XXXXXXXXXXXXXXXXXXXX     XXXXXX##########",
"############....XX     XXXXXXXXXXXXXXXXXXXXXXXXXXXXXXX##########",
"############....XXXXXXXXXXXXXXXXXXXXXXXXXXXXXXXXXXXXXX##########",
"############.....XXXXXXXXXXXXXXXXXXXXXXXXXXXXXXXXXXXXX##########",
"############.....XXXXXXXXXXXXXXXXXXXXXXXXXXXXXXXXXXXXX##########",
"############......XXXXXXXXXXXXXXXXXXXXXXXXXXXXXXXXXXXX##########",
"############....X.XXXXXXXXXXXXXXXXXXXXXXXXXXXXXXXXXXXX##########",
"############.......XXXXXXXXXXXXXXXXXXXXXXXXXXXXXXXXXXX##########",
"############.......XXXXXXXXXXXXXXXXXXXXXXXXXXXXXXXXXXX##########",
"############......XXXXXXXXXXXXXXXXXXXXXXXXXXXXXX..XXXX##########",
"############...XXXXXXXXXXXXXXXXXXXXXXXXXXXXXXX....XXXX##########",
"#############...XXXXXXXXXXXXXXXXXXXXXXXXXXX......XXXXX##########",
"#############...XXXXXXXXXXXXXXXXXXXXXXXX.........XXXXX##########",
"#############..XXXXXXXXXXXXXXXXXXXXX.....####....XXXXXX#########",
"#############..XXXXXX...............##########..XXXXXXX#########",
"#############.XXXXXX....######################...XXXXXX#########",
"#############.XXXXX.....######################....XXXXX#########",
"#############.XXXXX.....#######################...XXXXX#########",
"#############.XXXX.....#########################..XXXX##########",
"#############..XXX....###########################.X.X###########",
"##############..XXX..###########################################",
"###############.....############################################"
};
