/* XPM */
static char *_fcf82a53651411c897490beca82e5bedj2W7sHmD8aYtxCz[] = {
/* columns rows colors chars-per-pixel */
"32 32 3 1 ",
"  c None",
". c #16171A",
"X c #7F0622",
/* pixels */
"     ....                ..     ",
"      ..   ..      .... .....   ",
" ...       ...     .X.. ....X.  ",
" .X.        ..     ..      ...  ",
" ..      ...      ..        ... ",
"     .  ....     .X.         .. ",
" ...    ...X.    .           .. ",
"....    .......              .. ",
"X..  ...    ...               . ",
"..   ..                         ",
"..  ....                        ",
"    .X..    ..      ...      .. ",
" .  ..X.   ...       ..      .. ",
"      ..   ...        ..        ",
"      .    ..          .        ",
" ..            ..               ",
" ..            ..X.             ",
"            .. ......           ",
"           XX.    ..X    ..     ",
".         ...     ...  ....     ",
".         ...         .XX. ...  ",
"                      ...  .X.  ",
"            .         ..        ",
".        ...     ...          ..",
"..       ...     ...         ...",
"         ..      ...         ...",
"         .       .X.        ... ",
"               .....       .... ",
" .             .X.X.      ..    ",
" ..               ..            ",
"    ..     ..     .. ..         ",
"           ..        ..         "
};
