/* XPM */
static char *_ffdc12df3064727deda4bbcc31c62c0V3tPNd43o60rB5zO[] = {
/* columns rows colors chars-per-pixel */
"32 32 5 1 ",
"  c None",
". c #D62411",
"X c #FF8426",
"o c #FFD100",
"O c #FAFDFF",
/* pixels */
"                                ",
"                                ",
"    .XXXX            XXX        ",
"   .XooooX         .XooXXX      ",
"  .XooooooX    .XXXooooooXX     ",
"  XooOOOooX .XXXooooooooooXX    ",
" .XoOOOOOooXXooooooooooooooXX   ",
" .ooOOOOOOoXoooooooooXXooooXX   ",
" .XoOOOOOooXoOOOOoooooXXXoXX.   ",
"  .XoOOOXXooOOOOOOoOOOooXoX.    ",
"   XXoXXooooOOOOOOOOOOOooX..    ",
"   XXXXoooooOOOOOOOooOOooX.     ",
"  XXoXoooooOOOOOOOOOooOooX      ",
" .XooXoooOOOOOoOOOOOOooXXX.     ",
" XoooXooOOOOOoOOOOOOOOooooXX    ",
" XooooooOOOOoOOooOOOoooooooX    ",
"  XoooooOOOOoOooooooooooooooX   ",
"   XooooOOOOoooooXXXXooooooo.   ",
"   XoooooOOOoooXXooooooooooX.   ",
"    .oooooooooooooOOOoooX..X    ",
"   X..ooOOOooooOOOOOOo..XoXXX   ",
"  XooooOOOOOoOOOOOOOOXXoooooX   ",
"  ooooooOOOOooOOOOOOOoooooooo   ",
" XoooooooOOoooOOOOoooooooooXo   ",
" XXooooXooooXooOOooooXooooooo   ",
" .XoooooXoooXXooooooXXooooXoX   ",
" .XXoooXXoXXXXXXXXXXooooXXoo.   ",
"  .XXoXXX. X....XXXoooXXooX.    ",
"  ..XXXX.          .ooXXX.      ",
"   .....            .XX         ",
"                                ",
"                                "
};
