/* XPM */
static char *_e2c067890aa495691e64e8e18b0910eqHtCpZdFakrfCj9J[] = {
/* columns rows colors chars-per-pixel */
"32 32 4 1 ",
"  c None",
". c #16171A",
"X c #7F0622",
"o c #D62411",
/* pixels */
"                ...XX..         ",
"     .....  .. .XX.XXXX...      ",
"   ............XX...XXXX....    ",
"  ..XXXX.........    .X..XXX.   ",
"  ..oooX..... ..  ....XXX.XX..  ",
" ..XoX...XX..  . ....XXXX..X..  ",
" ..Xo....XXX.    ...XXooXX.XX.. ",
" ...X...XooXo.   ...XXoXXX..... ",
"..X.....XooXX..  ...XXXX......  ",
"..o...XX.XXX...   ......XX....  ",
"..X.. Xoo......     ....XX..... ",
"....  .oXXXX..        ..XX .... ",
" ...  .XXXoX.          ...   .. ",
"  ...  ..XXX.       .XX.  ....  ",
"   ..    ...       ..oo..  .... ",
"                   ..oo..    .. ",
"   ...             ..Xo..    .. ",
"  .....            ....     ... ",
" ..XXX.      ....           ..  ",
" .XoXX.     ...XX..       ..    ",
".XXXX..    ..X......    ......  ",
".XooX      ..XXXXX..   ........ ",
"..XXX      .XXooXX.... ....XX.. ",
" ...       .XXXXX........oooX.. ",
"  ..      ..oXXoX........ooXo...",
"  ..    ...XX.......  .....Xo...",
"..XX.  ..XXXX   ...   XX...XXo..",
"..XXX ...XXX... ...  XXX...XXX. ",
" ..XX  ... .... ... XXoX....... ",
" ..... ...      ... XooX. ....  ",
"    ..  ..       ...XXXX.       ",
"                  .....         "
};
