/* XPM */
static char *_0370f8200a7448e85ca199bfa3d549dERGk4fLuKPjpoU95[] = {
/* columns rows colors chars-per-pixel */
"32 32 5 1 ",
"  c None",
". c #16171A",
"X c #7F0622",
"o c #D62411",
"O c #FF8426",
/* pixels */
"                     XXX        ",
"    XXXXXX         XXXXXXXX     ",
"   XXoooXXX      XXXoooooXX     ",
"  XXoooXXXX.  XXXXXoooooooXX    ",
"  XoooooXX...XoooXXooooooooX    ",
" XXooOOooX.XXooooXoooooooooX.   ",
" XXoOOOOooXoooXXX.XXXoXoXooXX   ",
"XoooOoOooXoooXX.....XXooooXXX   ",
"XXoooooXXoooXooooooXXXXXooXXX   ",
"XXXXoooXXooooooooooooXXXXXXXX   ",
" .XXXoXXXoooOOOoOOOooXXXXXoo.   ",
"  .XXoXXXooOOooOOOOoooXXXooo.   ",
"  .XoXXXooOOOOoOOOOOoooXXoOOX   ",
"  XooXooooOOOOooOOOooooooOOOoX  ",
"  XoXXoooOOOOOooOOoOOOooOOOooX  ",
"  XooXooOOooOoooOOoOOOooooooXX  ",
"  XXoXXoOOOOoooooOOOOOooXXXXXX  ",
"   XXXXoOOOOOoooooOOOoooXooXXX  ",
"   .XXXoOoOOoXXXooooooooooooX.  ",
"    XXooOoOOX..XooOOoooooooo..  ",
"    .XoooOOX.XXooOOOOooooooX.   ",
"  XXooXoooooXXXooOOOOOooooo..   ",
"  XooooXXXoooXXoooOOOoooooX..X  ",
" XXooXXXXXoXXXXXXoooooXXX..XXXX ",
" XXooXXXooXXXXoooXooooXXXXXXoXX ",
" XoOOOOOooXXXoXoooXoooXXooXXXXX ",
" XoOOOOOoXX.XoooooXXXXoooooXoX  ",
" XooOOOXXX..XXoooooXXXooooXo.   ",
" XXXooXXX.. .XXooooXXooooXoX    ",
"  .XXoXXX.   .XXXXX.XXXoXX..    ",
"   .XXXX.     ...  ..XXXXX.     ",
"    ..XX             ..X.       "
};
