/* XPM */
static char *_da0515e1fa04a04efb24b1f18a7da1ehblBWdlGEnNJ08vM[] = {
/* columns rows colors chars-per-pixel */
"32 32 2 1 ",
"  c None",
". c #7F0622",
/* pixels */
"                                ",
"                                ",
"                                ",
"                                ",
"                                ",
"                                ",
"                                ",
"                                ",
"                                ",
"                                ",
"              ...               ",
"           .........            ",
"          ...........           ",
"          ...........           ",
"          ...........           ",
"         .............          ",
"         .............          ",
"         .............          ",
"          ...........           ",
"          ...........           ",
"          ...........           ",
"           .........            ",
"              ...               ",
"                                ",
"                                ",
"                                ",
"                                ",
"                                ",
"                                ",
"                                ",
"                                ",
"                                "
};
