/* XPM */
static char *_73f048484f94ccafc302f6881c978c63iSt6QTTHddtOWbJ[] = {
/* columns rows colors chars-per-pixel */
"32 32 3 1 ",
"  c None",
". c #FFD100",
"X c #FAFDFF",
/* pixels */
"                                ",
"                                ",
"                                ",
"                                ",
"                                ",
"                        ..      ",
"      .                ..       ",
"       ..    .....   ...        ",
"       ................         ",
"        .....XXXXX.....         ",
"        ..XXXXXXXXXXXX.         ",
"        .XXXXXXXXXXXXX.         ",
"       .XXXXXXXXXXXXXXX.        ",
"       .XXXXXXXXXXXXXXX.        ",
"      ..XXXXXXXXXXXXXXXX.       ",
"      .XXXXXXXXXXXXXXXXX.       ",
"      .XXXXXXXXXXXXXXXXX.       ",
"      .XXXXXXXXXXXXXXXXX.       ",
"      ..XXXXXXXXXXXXXXXX.       ",
"       .XXXXXXXXXXXXXXX.        ",
"       ..XXXXXXXXXXXXXX.        ",
"        .XXXXXXXXXXXXX.         ",
"        .XXXXXXXXXXXXX.         ",
"        ...XXXXXXXXXXX..        ",
"       ... ...XXXX..XXX.        ",
"       ..    ......  .X.        ",
"      .               ...       ",
"                       ..       ",
"                         .      ",
"                                ",
"                                ",
"                                "
};
