/* XPM */
static char *_f28fa27ac8443c1bff34263d31e75483AyW1lzyJRNvBik8[] = {
/* columns rows colors chars-per-pixel */
"32 32 4 1 ",
"  c None",
". c #FF8426",
"X c #FFD100",
"o c #FAFDFF",
/* pixels */
"                 .              ",
"  .             XX              ",
"  .oX           oX         XX.  ",
"   ooX         Xoo       XooX   ",
"   .ooX        ooo     XoooX    ",
"    ooXX    XXXoooX..XooooX     ",
"    XoooX XXooXooooooooooo      ",
"     XoooooooXooooooooooo       ",
"     Xooooooooooooooooooo       ",
"     Xoooooooooooooooooo        ",
"     XoooooooooooooooooX        ",
"    XXooooooooooooooooooX       ",
"    XoooooooooooooooooooX       ",
"   Xooooooooooooooooooooo       ",
"  XooooooooooooooooooooXXX.     ",
".oooooooooooooooooooooooooooXX. ",
" .XooooooooooooooooooooooooooooX",
"   XooooooooooooooooooooooX     ",
"   XXooooooooooooooooooooo      ",
"   XXoooooooooooooooooooo       ",
"    Xoooooooooooooooooooo       ",
"    XoooooooooooooooooooX       ",
"     Xoooooooooooooooooo        ",
"     XooooooXXXoooooooooX       ",
"     XooooXX...XXoooooooXX      ",
"    XooXXX.       XXoooooX      ",
"    XoX             XoooooX     ",
"   XoX                XoooX     ",
"   .X                  .Xoo     ",
"  .                      .X     ",
"                           X    ",
"                                "
};
