/* XPM */
static char *bluelight11713779022[] = {
/* columns rows colors chars-per-pixel */
"64 64 124 2 ",
"   c #000000",
".  c #00000B",
"X  c #000013",
"o  c #00001C",
"O  c #000023",
"+  c #00002C",
"@  c #000033",
"#  c #00003C",
"$  c #000044",
"%  c #00004C",
"&  c #000054",
"*  c #00015C",
"=  c #000164",
"-  c #00016B",
";  c #000273",
":  c #01027C",
">  c #010384",
",  c #030884",
"<  c #01038A",
"1  c #03098D",
"2  c #010495",
"3  c #030994",
"4  c #02059B",
"5  c #04099C",
"6  c #0204A4",
"7  c #0509A3",
"8  c #0304AA",
"9  c #060BAB",
"0  c #050AB3",
"q  c #060BBB",
"w  c #060CC3",
"e  c #060CCC",
"r  c #060CD3",
"t  c #060CDC",
"y  c #060CE4",
"u  c #060CEC",
"i  c #060DF4",
"p  c #060EFA",
"a  c #0710F7",
"s  c #0810F7",
"d  c #0710FA",
"f  c #0A14FD",
"g  c #0D1BFF",
"h  c #1125E5",
"j  c #1329E5",
"k  c #1124EB",
"l  c #132BEB",
"z  c #0F20F4",
"x  c #0F21FE",
"c  c #1123F3",
"v  c #142EF3",
"b  c #1023FB",
"n  c #152FF8",
"m  c #1531F5",
"M  c #1634FC",
"N  c #1836FF",
"B  c #1739FE",
"V  c #193CFF",
"C  c #1C43FF",
"Z  c #1F4AFF",
"A  c #204DFF",
"S  c #2254FF",
"D  c #255AFF",
"F  c #285FFF",
"G  c #2A6DF7",
"H  c #2761FF",
"J  c #2965FE",
"K  c #2A6BFC",
"L  c #2D74F6",
"P  c #2E7AF6",
"I  c #2D74F9",
"U  c #2E7AF9",
"Y  c #317DF6",
"T  c #317DFA",
"R  c #3284FC",
"E  c #358BFE",
"W  c #388EFF",
"Q  c #3693FF",
"!  c #3994FF",
"~  c #3798FF",
"^  c #399CFF",
"/  c #3AA3FF",
"(  c #3CACFF",
")  c #3DB3FF",
"_  c #3EBBFF",
"`  c #40B4FF",
"'  c #41BCFF",
"]  c #3FC3FF",
"[  c #3FCDFF",
"{  c #3FD3FF",
"}  c #3ED8FF",
"|  c #42C4FF",
" . c #42CCFF",
".. c #43D3FF",
"X. c #44DBFF",
"o. c #4BDDFF",
"O. c #46E0FF",
"+. c #4DE2FF",
"@. c #52E5FF",
"#. c #55EAFF",
"$. c #5CECFF",
"%. c #64EFFF",
"&. c #69EFFF",
"*. c #62F0FF",
"=. c #6CF1FF",
"-. c #74F2FF",
";. c #7DF3FF",
":. c #85F4FF",
">. c #8BF4FF",
",. c #94F5FF",
"<. c #9DF6FF",
"1. c #A2F6FF",
"2. c #AAF7FF",
"3. c #B2F7FF",
"4. c #B4F8FF",
"5. c #BAF8FF",
"6. c #C5F9FF",
"7. c #CBFAFF",
"8. c #D5FBFF",
"9. c #DCFBFF",
"0. c #E4FBFF",
"q. c #EBFCFF",
"w. c #F3FCFF",
"e. c #FAFDFF",
/* pixels */
"                                                                                                                                ",
"                                                                                                                                ",
"                                                                                                                                ",
"                                                    . X X o o o o o o o X X .                                                   ",
"                                            . X o o + @ @ $ $ $ % $ $ # # + O o X . .                                           ",
"                                        . X o + # % & = ; : > > > > : : ; = & % # + o X .                                       ",
"                                    . X O @ % * ; < 4 8 0 q w w w w w q 0 7 4 > ; & $ + o X .                                   ",
"                                  X o @ % - > 5 0 w r r t y y u u u u y t t e w 0 5 > = % @ o .                                 ",
"                              . X + $ = > 7 q r t u u i i d d d p p p p i i u y t r q 6 > * $ + X .                             ",
"                            . o # & : 7 q r y u i i d d d f f f f f f f f a p p i u y e q 5 ; & @ o .                           ",
"                          . O $ = < 0 e y u i p d f g g g g x x x x g g g g g g f a i u t e 9 > * # o .                         ",
"                        X O $ - 3 q t u i a f f g g x x b x z z c c c b x x g g g f f i i u r q 3 = # O .                       ",
"                      . O $ - 5 w y u i f f g x x c l k h j l l l l l j j k k b x g g g f i u t w 5 - # o .                     ",
"                    . o $ - 7 e t i d f g g x c k j l m m C C B V V B B m m l j l z x g g f p i t w 5 - # o .                   ",
"                  . o # = 5 w y a d g g x x k j v B V C C C Z Z Z Z Z Z C C V M l h k b x g g a i t w 3 = @ o                   ",
"                  X + * 3 w t i d f g x k j l M C C Z Z S S D D D D D S S A Z C C M l j z x g f d i t q 1 & + X                 ",
"                . O % , q t u p f g x h j n V C Z S S D H J J J K J K H H D D S Z C V m j l b g g d u r 0 : $ O .               ",
"                X # ; 9 e u i g g x h l B C Z S S H K K G L I P P U I L L G J H S S Z V M j k b g f s u e 9 - @ X               ",
"              X + * 3 w y a g g x k l B C Z S D H G L U R R E E E E E R R I L K K D S Z C N j l x g f i y q 1 & O .             ",
"              o # : 9 t a f g g k j B C Z S H K G R R E ~ ~ / / / / / ^ Q Q R P L K H S A V M j c x g d u r 9 ; # o             ",
"            X + * 3 e u a f x z j M C Z S H G L R E ~ / / ( ( ( ) ) ) ( / / ~ E R L K H S A V M h c g g s y w 1 & O .           ",
"            X # ; 9 t u f g x h m B Z S H G P R Q ~ ( ( _ _ ] ] ] ] _ _ _ ( ( ^ Q R P K J S C V v j b g d i r 9 - @ X           ",
"          . O % 1 w y d g z k k B C S D K L R ~ / ( ) _ ] [ { { [ { { [ ] _ _ ( / Q R L K D S C B j c g g s y q , $ o .         ",
"          . + = 7 r u d f x h M C Z D J G R Q / ( _ ] [ { } } O.X.} } } { [ ] _ ( / Q R L K S C V m j b g s u e 5 * O .         ",
"          X # ; q t a g g z j B C S H G R Q ~ / ] ] { } O.O.@.@.@.@.@.+.o.X.[ ] _ ( ^ Q P K J S C B j c g f i t 9 - @ X         ",
"          o $ , w y a g x k v V Z S J L R ~ / ] ] { } } +.#.#.*.*.*.$.#.@.o.X. .| _ / ^ R L J D A V l k g g i y q : # o         ",
"        . O & 3 e u a g z j M C Z D G R Q ~ ( ] } } } O.#.*.-.:.:.>.:.=.$.@.+... .] ` ^ Q P K D A C m j b g s y w 1 $ o .       ",
"        . + * 5 r u f g z k B C S H G R ~ ( ) ] } O.O.#.=.:.1.4.5.4.2.,.;.$.#.o...| ` ( ~ R L J S C N k c g g u r 5 & O .       ",
"        X + - 9 t a f g k l B Z D J L E ~ ) _ [ } O.#.*.:.1.6.8.0.9.8.5.<.-.$.@.X. .' ( ^ R I J S C B l c g g i h 7 * + .       ",
"        X @ - 9 t a g g k v V Z D J P E ~ ) ] [ O.+.$.-.<.6.0.q.w.q.q.9.4.>.&.@.o. .| ` / E U K D A V l c g g u e 9 - + .       ",
"        X @ ; 0 t a f g k v V Z D G R E / ) [ { O.#.$.;.4.8.q.e.e.e.w.0.6.<.-.@.o...| ` / W U K D A V v k g g a r 9 - + X       ",
"        X @ ; q y a g g k m C Z D G P Q / _ ] } O.+.*.:.5.9.w.e.e.e.e.q.7.1.-.$.@...| ` / ! Y K D A V v h g g f t 9 - @ .       ",
"        X # ; 0 t a f g k m V Z D K U Q / ) ] ..} #.*.:.5.8.q.e.e.e.w.q.7.<.-.@.@.| ' ` ` W Y K S A N v k x g i t 0 - + .       ",
"        X @ - 0 y a f x k v V Z D G U Q / ) ] { O.#.*.;.2.8.0.w.w.w.q.9.5.,.-.@.$. .| ` ^ R T K F A N l k g f i t 9 - @ .       ",
"        . @ - 9 t a f g k v V Z S K I R ^ ( ]  .} +.#.=.>.5.8.0.q.0.9.6.1.:.%.+.o.| ` ` ^ W L K A A N l c g f i r 7 = + .       ",
"        . + = 7 r u f g z l B C S H L R ~ ( _ | } O.#.*.-.,.2.6.7.7.5.1.:.&.$.o.o.| ` ` ! W G F A A N l c g f u r 5 * O .       ",
"        . O * 5 r u g x z j N C A H G R Q / _ ' ..X.+.#.%.-.>.<.<.<.,.;.%.$.@...o.' ` / W Y K F A A n j b g f u e 3 & O .       ",
"        . o % 1 w u d f g h M B Z D J L E ~ ( _ [ ..X.+.#.#.*.=.-.-.%.%.@.@.+. .' ` ` ! W T F F A N n h g g s y w , $ o         ",
"          o $ : q y a f g k v N Z S H G R Q / ) | | { X.o.@.#.#.@.#.$.@.@.o...| ` ` / W Y K F A A N l k g f i y 0 ; # X         ",
"          X @ - 9 r a f g z h M C Z D K L R Q / ) _ |  .o.X.o.o.+.@.+.o... . .' ` ` ! T L K F A N n j b g f u r 9 = + X         ",
"          . + * 3 e u a g g h v B C S H G P E ~ ` ` ` '  . ...o...o... . .| ' ` / ! W L K F S Z N l k g g s k w 1 % O .         ",
"            o $ > q y a f g k j M V Z S H G U E ! / / ` ' | | | | | | | ` ` ` ^ ! W Y K F S A N n h b g f i t q : # o           ",
"            X @ - 7 r u s g g h l M C Z D J G U W W ! ` ` ` ` ` ` ` ` ` ` / ^ ! T Y K J S A C N j k g g s u e 5 = + .           ",
"            . o % < q y a f g g h m B C Z S H G L T R ! ! ^ ^ ( ` ^ ` ^ ! ! W T L K F F A C N l h x g f i t q : $ o .           ",
"              X @ - 7 r u i f g g h M B C Z D H K G L T W W W W W W W W W T L G K F S A V N v h b g f i y e 7 = + X             ",
"              . O % > q t i f g g k h n B C Z S D J K G L I T T T T Y L L G K F F S A C N n h c g g s i t 0 : $ o .             ",
"                X + = 5 e y i a g g k h n B V C A S D F J J K K K K K K F F F A A Z V N v h c g f f i y w 3 * + X               ",
"                . o # ; 7 r u a a g g z h l N V V A A A S D D D F D D S S A A A V N N j h c g g f i u e 7 - # o                 ",
"                  . O % , 0 r u p d g g g h k v N B V C A A A A A A A A A C V N N l j k b g f d s u r 9 : $ O .                 ",
"                    X + & < q t u p d g g g k h h v M N N N N V V V N N N N n c h h c x g g d i u r 0 , % + .                   ",
"                    . X @ & > 0 r u p p d g g g z k j k l n n n N n n v l j h k c g g f d p i u r 0 , & + X                     ",
"                      . o # & < 0 r y i p d f g g g z z k k k k h k h k c c b g f g f p p i y r 9 , & + X .                     ",
"                        . X @ & : 8 e t u i p p f g g g g g b g g b g g g g g g f p p i u t w 7 : & @ X .                       ",
"                          . X @ % ; 2 q r y i i p p p p f g f f g g g f f p p p p i i y r 0 2 - $ + X .                         ",
"                            . X + $ = > 6 w r y u i i i p p p p p p p p p i i i u t r q 7 > * # O X                             ",
"                                . o @ % - < 6 q e t y u i i i i s i i i u u y r e q 6 < = % @ o .                               ",
"                                  . X O # % - > 4 8 q w r r t t t t r r e w q 8 3 : = % @ O X .                                 ",
"                                      . X O @ $ & - : < 2 4 8 8 8 9 8 5 2 < : - & $ @ O X .                                     ",
"                                          . X o + @ $ % & * = - - - = * & % # @ + o X .                                         ",
"                                              . . X X O O + + @ @ @ + + O o X X .                                               ",
"                                                      . . . . . X . . . . .                                                     ",
"                                                                                                                                ",
"                                                                                                                                ",
"                                                                                                                                "
};
