/* XPM */
static char *result[] = {
/* columns rows colors chars-per-pixel */
"64 64 223 2 ",
"   c #041F36",
".  c #041F37",
"X  c #04243F",
"o  c #042846",
"O  c #042B4B",
"+  c #042C4D",
"@  c #042D4D",
"#  c #042B4C",
"$  c #042541",
"%  c #041E34",
"&  c #041D32",
"*  c #042038",
"=  c #042039",
"-  c #042641",
";  c #042A49",
":  c #052D4E",
">  c #042E50",
",  c #042E51",
"<  c #042D4F",
"1  c #042743",
"2  c #052744",
"3  c #062D4E",
"4  c #07345A",
"5  c #093861",
"6  c #093A64",
"7  c #093963",
"8  c #083963",
"9  c #083962",
"0  c #073862",
"q  c #07365F",
"w  c #062E51",
"e  c #052641",
"r  c #052D4F",
"t  c #052E4F",
"y  c #07355D",
"u  c #0C3F6D",
"i  c #134879",
"p  c #154C7E",
"a  c #124A7C",
"s  c #11497A",
"d  c #10497A",
"f  c #12497B",
"g  c #11497B",
"h  c #0E4678",
"j  c #094171",
"k  c #052C4D",
"l  c #042B4A",
"z  c #052F52",
"x  c #052F53",
"c  c #114776",
"v  c #1C5286",
"b  c #1E568B",
"n  c #1B5387",
"m  c #185184",
"M  c #185084",
"N  c #1D558A",
"B  c #185185",
"V  c #0E477A",
"C  c #052D50",
"Z  c #052E52",
"A  c #093962",
"S  c #144979",
"D  c #21578A",
"F  c #24588E",
"G  c #1F538B",
"H  c #1B5086",
"J  c #1A5085",
"K  c #1A4F86",
"L  c #1B4F86",
"P  c #1D4F88",
"I  c #21548B",
"U  c #23588E",
"Y  c #1D568A",
"T  c #124A7D",
"R  c #093A63",
"E  c #205488",
"W  c #23568E",
"Q  c #1F518A",
"!  c #194C84",
"~  c #174B82",
"^  c #174C83",
"/  c #184B83",
"(  c #184B84",
")  c #194B84",
"_  c #1A4A85",
"`  c #1D4B87",
"'  c #21508B",
"]  c #23538D",
"[  c #1D5489",
"{  c #124B7E",
"}  c #124777",
"|  c #1B5084",
" . c #1E5089",
".. c #1A4C85",
"X. c #14477F",
"o. c #11467D",
"O. c #12467E",
"+. c #154680",
"@. c #184783",
"#. c #1E4A88",
"$. c #1F4E8A",
"%. c #1B5186",
"&. c #124B7D",
"*. c #194E82",
"=. c #174A83",
"-. c #12457D",
";. c #0E437A",
":. c #0C4378",
">. c #0D4379",
",. c #0D437A",
"<. c #11437C",
"1. c #15457F",
"2. c #1B4985",
"3. c #1D4E88",
"4. c #194F81",
"5. c #174A82",
"6. c #11457D",
"7. c #094376",
"8. c #094377",
"9. c #194A84",
"0. c #1C4F86",
"q. c #195085",
"w. c #074375",
"e. c #084375",
"r. c #0B4378",
"t. c #10457C",
"y. c #184A83",
"u. c #174982",
"i. c #10457D",
"p. c #084376",
"a. c #124776",
"s. c #194E81",
"d. c #1A4E86",
"f. c #11457C",
"g. c #13457E",
"h. c #0F437B",
"j. c #0A4377",
"k. c #134777",
"l. c #1B4E83",
"z. c #1D4D87",
"x. c #1A4984",
"c. c #0E437B",
"v. c #0F437A",
"b. c #10437C",
"n. c #154779",
"m. c #1D4D84",
"M. c #1E4E87",
"N. c #154780",
"B. c #13467E",
"V. c #12467D",
"C. c #14467E",
"Z. c #164781",
"A. c #1D5187",
"S. c #1A5186",
"D. c #0A3963",
"F. c #154879",
"G. c #1F4F87",
"H. c #21528B",
"J. c #1E4F88",
"K. c #1F528A",
"L. c #21568C",
"P. c #1D5589",
"I. c #144C7F",
"U. c #154979",
"Y. c #205388",
"T. c #23568D",
"R. c #20558B",
"E. c #1B5087",
"W. c #1B5286",
"Q. c #20578C",
"!. c #255B91",
"~. c #22598E",
"^. c #154D80",
"/. c #0A3A65",
"(. c #083861",
"). c #114676",
"_. c #1C5285",
"`. c #1E558A",
"'. c #1C5388",
"]. c #195185",
"[. c #1E568A",
"{. c #245A8F",
"}. c #20588D",
"|. c #134B7E",
" X c #052B4B",
".X c #052B4A",
"XX c #063156",
"oX c #0B3B65",
"OX c #114471",
"+X c #134775",
"@X c #124574",
"#X c #114574",
"$X c #114474",
"%X c #114573",
"&X c #114473",
"*X c #144777",
"=X c #174A79",
"-X c #0C3F6C",
";X c #073359",
":X c #052A49",
">X c #05223C",
",X c #05213A",
"<X c #052642",
"1X c #062A4A",
"2X c #072E51",
"3X c #073054",
"4X c #073053",
"5X c #072F52",
"6X c #072F51",
"7X c #082F51",
"8X c #093052",
"9X c #062C4D",
"0X c #052139",
"qX c #042037",
"wX c #04233F",
"eX c #042643",
"rX c #042744",
"tX c #042745",
"yX c #042542",
"uX c #04243E",
"iX c #041C2F",
"pX c #041A2E",
"aX c white",
/* pixels */
"  . X o O + + + + + + + + + + + + + + + + + + + + + + + + + + + + + + + + + + + + + + + + + + + + + + + + + + + + + + @ # $ % & ",
"* = - ; : > > > > > > > > > > > > > > > > > > > > > > > > > > > > > > > > > > > > > > > > > > > > > > > > > > > > > > , < 1   % ",
"1 2 3 4 5 6 7 8 8 8 7 8 8 8 8 8 8 8 8 8 8 8 8 8 8 8 8 8 8 8 8 8 8 7 8 8 8 8 8 8 8 8 8 8 7 8 8 8 8 7 8 8 8 7 8 8 8 8 9 0 q w e X ",
"r t y u i p a s d d d d d d d d d d d d d d d d d d d d s d d d d s d d d d d d d d d d s d d d d s d d d s d d d f g h j q k l ",
"z x 9 c v b n m M M M M M M M M M M M M M M M M M M M M M M M M M M M M M M M M M M M M M M M M M M M M M M M M M n N B V 8 C # ",
"Z z A S D F G H J J K L L L L L L L L L L L L L L L L L L L L L L L L L L L L L L L L L L L L L L L L L L L L L P I U Y T R r # ",
"Z x 7 S E W Q ! ~ ^ / ( ) ) ) ) ) ) ) ) ) ) ) ) ) ) ) ) ) ) ) ) ) ) ) ) ) ) ) ) ) ) ) ) ) ) ) ) ) ) ) ) ) ) ) _ ` ' ] [ { 6 r # ",
"z x 7 } |  ...X.o.o.O.O.O.O.O.O.O.O.O.O.O.O.O.O.O.O.O.O.O.O.O.O.O.O.O.O.O.O.O.O.O.O.O.O.O.O.O.O.O.O.O.O.O.O.O.+.@.#.$.%.&.6 r # ",
"Z z 7 } *.L =.-.;.:.>.>.,.>.>.,.,.,.>.,.,.,.,.>.,.>.>.,.>.,.,.,.,.>.>.,.>.>.,.>.>.>.,.>.>.,.>.>.,.,.>.>.,.,.;.<.1.2.3.J T 6 r # ",
"Z x 7 } 4.K 5.6.>.7.7.7.7.7.7.7.7.7.7.7.7.7.7.7.7.7.7.7.7.7.7.7.7.7.7.7.7.7.7.7.7.7.7.7.7.7.7.7.7.7.7.7.7.7.8.>.-.9.0.q.T 6 r # ",
"Z x R } 4.K 5.6.>.7.w.w.w.w.w.w.w.w.w.w.w.w.w.w.w.w.w.w.w.w.w.w.w.w.w.w.w.w.w.w.w.w.w.w.w.w.w.w.w.w.w.w.w.w.e.r.t.y.L q.T 6 r # ",
"Z x R } 4.K u.6.>.7.w.w.w.w.w.w.w.w.w.w.w.w.w.w.w.w.w.w.w.w.w.w.w.w.w.w.w.w.w.w.w.w.w.w.w.w.w.w.w.w.w.w.w.w.e.r.i.y.L q.&.6 r # ",
"Z x 7 } 4.K u.6.>.7.w.w.w.w.w.w.w.w.w.w.w.w.w.w.w.w.w.w.w.w.w.w.w.w.w.w.w.w.w.w.w.w.w.w.w.w.w.w.w.w.w.w.w.w.p.r.t.y.L q.T 6 r # ",
"Z x 7 a.4.K u.6.>.7.w.w.w.w.w.w.w.w.w.w.w.w.w.w.w.w.w.w.w.w.w.w.w.w.w.w.w.w.w.w.w.w.w.w.w.w.w.w.w.w.w.w.w.w.e.r.i.y.0.q.T 6 r # ",
"z x 7 a.4.K u.6.>.7.w.w.w.w.w.w.w.w.w.w.w.w.w.w.w.w.w.w.w.w.w.w.w.w.w.w.w.w.w.w.w.w.w.w.w.w.w.w.w.w.w.w.w.w.e.r.6.y.L q.T 6 r # ",
"Z x 7 } 4.K u.6.>.7.w.w.w.w.w.w.w.w.w.w.w.w.w.w.w.w.w.w.w.w.w.w.w.w.w.w.w.w.w.w.w.w.w.w.w.w.w.w.w.w.w.w.w.w.e.r.6.y.L q.T 6 r # ",
"Z z 7 } 4.K u.6.>.7.w.w.w.w.w.w.w.w.w.w.w.w.w.w.w.w.w.w.w.w.w.w.w.w.w.w.w.w.w.w.w.w.w.w.w.w.w.w.w.w.w.w.w.w.e.r.i.y.L q.T 6 r # ",
"Z x 7 a.4.K u.6.>.7.w.w.w.w.w.w.w.w.w.w.w.w.w.w.w.w.w.w.w.w.w.w.w.w.w.w.w.w.w.w.w.w.w.w.w.w.w.w.w.w.w.w.w.w.e.r.t.y.L q.T 6 r # ",
"Z x 7 } s.d.u.6.>.7.w.w.w.w.w.w.w.w.w.w.w.w.w.w.w.w.w.w.w.w.w.w.w.w.w.w.w.w.w.w.w.w.w.w.w.w.w.w.w.w.w.w.w.w.e.r.t.y.0.q.T 6 r # ",
"Z x 7 } 4.K u.6.>.7.w.w.w.w.w.w.w.w.w.w.w.w.w.w.w.w.w.w.w.w.w.w.w.w.w.w.w.w.w.w.w.w.w.w.w.w.w.w.w.w.w.w.w.w.e.r.t.y.L q.T 6 r # ",
"Z x 7 } 4.K u.6.>.7.w.w.w.w.w.w.w.w.w.w.w.w.w.w.w.w.w.w.w.w.w.w.w.w.w.w.w.w.w.w.w.w.w.w.w.w.w.w.w.w.w.w.w.w.e.r.i.y.L q.T 6 r # ",
"Z x 7 } 4.K u.6.>.7.w.w.w.w.w.w.w.w.w.w.w.w.w.w.w.w.w.w.w.w.w.w.w.w.w.w.w.w.w.w.w.w.w.w.w.w.w.w.w.w.w.w.w.w.e.r.6.y.L q.&.6 r # ",
"Z x 7 } 4.K u.6.>.7.w.w.w.w.w.w.w.w.w.w.w.w.w.w.w.w.w.w.w.w.w.w.w.w.w.w.w.w.w.w.w.w.w.w.w.w.w.w.w.w.w.w.w.w.e.r.6.y.L q.T 6 r # ",
"Z z R } 4.K u.6.>.7.w.w.w.w.w.w.w.w.w.w.w.w.w.w.w.w.w.w.w.w.w.w.w.w.w.w.w.w.w.w.w.w.w.w.w.w.w.w.w.w.w.w.w.w.e.r.6.y.L q.T 6 r # ",
"z z 7 } 4.K u.6.>.7.w.w.w.w.w.w.w.w.w.w.w.w.w.w.w.w.w.w.w.w.w.w.w.w.w.w.w.w.w.w.w.w.w.w.w.w.w.w.w.w.w.w.w.w.e.r.6.y.L q.T 6 r # ",
"Z z 7 } 4.K u.6.>.7.w.w.w.w.w.w.w.w.w.w.w.w.w.w.w.w.w.w.w.w.w.w.w.w.w.w.w.w.w.w.w.w.w.w.w.w.w.w.w.w.w.w.w.w.e.r.i.y.L q.T 6 r # ",
"Z z 7 } 4.K u.6.>.7.w.w.w.w.w.w.w.w.w.w.w.w.w.w.w.w.w.w.w.w.w.w.w.w.w.w.w.w.w.w.w.w.w.w.w.w.w.w.w.w.w.w.w.w.e.r.t.y.0.q.&.6 r # ",
"Z z 7 } 4.K u.6.>.7.w.w.w.w.w.w.w.w.w.w.w.w.w.w.w.w.w.w.w.w.w.w.w.w.w.w.w.w.w.w.w.w.w.w.w.w.w.w.w.w.w.w.w.w.e.r.i.y.L q.&.6 r # ",
"Z x R } 4.K u.t.>.7.w.w.w.w.w.w.w.w.w.w.w.w.w.w.w.w.w.w.w.w.w.w.w.w.w.w.w.w.w.w.w.w.w.w.w.w.w.w.w.w.w.w.w.w.e.r.i.y.L q.&.6 r # ",
"z x 7 } 4.K u.6.>.7.w.w.w.w.w.w.w.w.w.w.w.w.w.w.w.w.w.w.w.w.w.w.w.w.w.w.w.w.w.w.w.w.w.w.w.w.w.w.w.w.w.w.w.w.e.r.i.y.L q.T 6 r # ",
"Z x 7 a.4.K u.6.>.7.w.w.w.w.w.w.w.w.w.w.w.w.w.w.w.w.w.w.w.w.w.w.w.w.w.w.w.w.w.w.w.w.w.w.w.w.w.w.w.w.w.w.w.w.e.r.i.y.L q.T 6 r # ",
"Z x 7 } 4.K u.6.>.7.w.w.w.w.w.w.w.w.w.w.w.w.w.w.w.w.w.w.w.w.w.w.w.w.w.w.w.w.w.w.w.w.w.w.w.w.w.w.w.w.w.w.w.w.e.r.t.y.L q.T 6 r # ",
"Z z 7 } 4.K u.6.>.7.w.w.w.w.w.w.w.w.w.w.w.w.w.w.w.w.w.w.w.w.w.w.w.w.w.w.w.w.w.w.w.w.w.w.w.w.w.w.w.w.w.w.w.w.e.r.i.y.L q.T 6 r # ",
"z z 7 } 4.K u.6.>.7.w.w.w.w.w.w.w.w.w.w.w.w.w.w.w.w.w.w.w.w.w.w.w.w.w.w.w.w.w.w.w.w.w.w.w.w.w.w.w.w.w.w.w.w.e.r.i.y.L q.T 6 r # ",
"z z 7 } 4.K u.6.>.7.w.w.w.w.w.w.w.w.w.w.w.w.w.w.w.w.w.w.w.w.w.w.w.w.w.w.w.w.w.w.w.w.w.w.w.w.w.w.w.w.w.w.w.w.e.r.i.y.L q.T 6 r # ",
"Z x 7 } 4.K u.6.>.7.w.w.w.w.w.w.w.w.w.w.w.w.w.w.w.w.w.w.w.w.w.w.w.w.w.w.w.w.w.w.w.w.w.w.w.w.w.w.w.w.w.w.w.w.p.r.t.y.L q.T 6 r # ",
"Z x 7 } 4.K u.6.>.7.w.w.w.w.w.w.w.w.w.w.w.w.w.w.w.w.w.w.w.w.w.w.w.w.w.w.w.w.w.w.w.w.w.w.w.w.w.w.w.w.w.w.w.w.e.r.i.y.L q.T 6 r # ",
"Z x 7 } 4.K u.6.>.7.w.w.w.w.w.w.w.w.w.w.w.w.w.w.w.w.w.w.w.w.w.w.w.w.w.w.w.w.w.w.w.w.w.w.w.w.w.w.w.w.w.w.w.w.e.r.i.y.L q.T 6 r # ",
"Z z 7 } 4.K u.6.>.7.w.w.w.w.w.w.w.w.w.w.w.w.w.w.w.w.w.w.w.w.w.w.w.w.w.w.w.w.w.w.w.w.w.w.w.w.w.w.w.w.w.w.w.w.e.r.6.y.L q.T 6 r # ",
"Z z R } 4.K u.t.>.7.w.w.w.w.w.w.w.w.w.w.w.w.w.w.w.w.w.w.w.w.w.w.w.w.w.w.w.w.w.w.w.w.w.w.w.w.w.w.w.w.w.w.w.w.e.r.6.y.L q.T 6 r # ",
"Z z 7 } 4.K u.6.>.7.w.w.w.w.w.w.w.w.w.w.w.w.w.w.w.w.w.w.w.w.w.w.w.w.w.w.w.w.w.w.w.w.w.w.w.w.w.w.w.w.w.w.w.w.e.r.i.y.L q.&.6 r # ",
"Z x 7 a.4.K u.6.>.7.w.w.w.w.w.w.w.w.w.w.w.w.w.w.w.w.w.w.w.w.w.w.w.w.w.w.w.w.w.w.w.w.w.w.w.w.w.w.w.w.w.w.w.w.e.r.i.y.L q.T 6 r # ",
"Z x R a.4.K u.f.>.7.w.w.w.w.w.w.w.w.w.w.w.w.w.w.w.w.w.w.w.w.w.w.w.w.w.w.w.w.w.w.w.w.w.w.w.w.w.w.w.w.w.w.w.w.e.r.i.y.L q.T 6 r # ",
"Z z 7 } 4.K u.t.>.7.w.w.w.w.w.w.w.w.w.w.w.w.w.w.w.w.w.w.w.w.w.w.w.w.w.w.w.w.w.w.w.w.w.w.w.w.w.w.w.w.w.w.w.w.e.r.i.y.L q.&.6 r # ",
"Z x 7 } 4.K u.6.>.7.w.w.w.w.w.w.w.w.w.w.w.w.w.w.w.w.w.w.w.w.w.w.w.w.w.w.w.w.w.w.w.w.w.w.w.w.w.w.w.w.w.w.w.w.e.r.i.y.L q.T 6 r # ",
"Z x 7 a.4.K u.6.>.7.w.w.w.w.w.w.w.w.w.w.w.w.w.w.w.w.w.w.w.w.w.w.w.w.w.w.w.w.w.w.w.w.w.w.w.w.w.w.w.w.w.w.w.w.e.r.i.y.L q.T 6 r # ",
"Z x 7 } 4.K u.6.>.7.w.w.w.w.w.w.w.w.w.w.w.w.w.w.w.w.w.w.w.w.w.w.w.w.w.w.w.w.w.w.w.w.w.w.w.w.w.w.w.w.w.w.w.w.e.r.t.y.L q.T 6 r # ",
"Z x R a.4.K u.6.>.7.w.w.w.w.w.w.w.w.w.w.w.w.w.w.w.w.w.w.w.w.w.w.w.w.w.w.w.w.w.w.w.w.w.w.w.w.w.w.w.w.w.w.w.w.e.r.i.y.L q.T 6 r # ",
"Z x 7 } 4.K u.6.>.7.w.w.w.w.w.w.w.w.w.w.w.w.w.w.w.w.w.w.w.w.w.w.w.w.w.w.w.w.w.w.w.w.w.w.w.w.w.w.w.w.w.w.w.w.e.r.i.y.L q.T 6 r # ",
"Z x 7 } 4.K u.6.>.7.w.w.w.w.w.w.w.w.w.w.w.w.w.w.w.w.w.w.w.w.w.w.w.w.w.w.w.w.w.w.w.w.w.w.w.w.w.w.w.w.w.w.w.w.e.r.i.y.L q.T 6 r # ",
"Z z 7 } 4.K u.6.>.7.w.w.w.w.w.w.w.w.w.w.w.w.w.w.w.w.w.w.w.w.w.w.w.w.w.w.w.w.w.w.w.w.w.w.w.w.w.w.w.w.w.w.w.w.e.r.t.y.L q.T 6 r # ",
"Z x R } 4.K u.6.>.7.w.w.w.w.w.w.w.w.w.w.w.w.w.w.w.w.w.w.w.w.w.w.w.w.w.w.w.w.w.w.w.w.w.w.w.w.w.w.w.w.w.w.w.w.p.r.i.y.L q.T 6 r # ",
"Z x 7 } 4.K u.6.>.7.w.w.w.w.w.w.w.w.w.w.w.w.w.w.w.w.w.w.w.w.w.w.w.w.w.w.w.w.w.w.w.w.w.w.w.w.w.w.w.w.w.w.w.w.e.r.i.y.L q.T 6 r # ",
"z x 7 } 4.K u.6.>.7.w.w.w.w.w.w.w.w.w.w.w.w.w.w.w.w.w.w.w.w.w.w.w.w.w.w.w.w.w.w.w.w.w.w.w.w.w.w.w.w.w.w.w.w.e.r.t.y.L q.&.6 r # ",
"z x 7 } s.K 5.6.>.7.w.w.w.w.w.w.w.w.w.w.w.w.w.w.w.w.w.w.w.w.w.w.w.w.w.w.w.w.w.w.w.w.w.w.w.w.w.w.w.w.w.w.w.w.e.r.i.y.L q.T 6 r # ",
"z x R a.4.L y.g.h.:.j.j.j.j.j.j.j.j.j.j.j.j.j.j.j.j.j.j.j.j.j.j.j.j.j.j.j.j.j.j.j.j.j.j.j.j.j.j.j.j.j.j.j.j.j.>.6.y.L q.&.6 r # ",
"Z x 7 k.l.z.x.1.<.h.;.c.;.c.;.c.c.;.c.;.c.;.;.;.c.;.;.;.;.;.;.c.c.c.c.;.;.c.c.c.;.;.c.;.c.c.c.;.;.;.;.;.c.;.v.b.g.y.L q.T 6 r # ",
"Z z 7 n.m.M._ N.B.V.O.V.V.V.O.O.O.V.V.O.V.V.O.V.V.O.O.V.V.V.V.V.V.O.O.O.V.O.O.O.V.O.V.V.O.V.V.O.V.O.V.O.V.V.O.C.Z...A.S.T 6 r # ",
"Z z D.F.G.H.J.! y./ / / / / / / / / / / / / / / / / / / / / / / / / / / / / / / / / / / / / / / / / / / / / ~ / ..K.L.P.I.6 r # ",
"Z x 7 U.Y.T.R.E.J J J J J J J J J J J J J J J J J J J J J J J J J J J J J J J J J J J J J J J J J J J J J J J q.W.Q.!.~.^./.r # ",
"z z (.)._.`.'.B M M M M M M M M M M M M M M M M M M M M M M M M M M m M M M M M M M M M M M M M m M M M M m M m ].[.{.}.|.R r # ",
" X.XXXoXOX+X@X#X#X#X#X#X#X$X$X$X#X#X$X$X$X$X$X$X#X#X$X$X$X$X$X$X$X#X$X$X$X$X$X$X$X$X$X$X$X$X$X$X$X#X#X%X#X%X%X&X@X*X=X*X-X;X:Xo ",
">X,X<X1X2X3X4X4X4X5X6X6X6X6X6X6X6X6X7X6X6X6X7X6X6X6X6X6X6X6X7X6X6X6X6X6X6X6X6X6X6X6X6X6X6X6X6X6X6X6X6X6X6X6X6X6X6X7X8X7X9X2 0XqX",
"% & * wXeXrXrXtXrXyXX X X X X X X X X X X X X X X X X X X X X X X X X X X X X X X X X X X X X X X X X X X X X X X X X X uX* iXpX"
};
