/* XPM */
static char *aaaf2c81763340ab81f820ef7d2b828feObe7jLJ5npuuSsZ[] = {
/* columns rows colors chars-per-pixel */
"16 26 121 2 ",
"   c None",
".  c #222729",
"X  c #252B2D",
"o  c #282B2E",
"O  c #372E2B",
"+  c #262D30",
"@  c #292E31",
"#  c #273132",
"$  c #283435",
"%  c #4E3529",
"&  c #5F3A27",
"*  c #5E3A28",
"=  c #613A27",
"-  c #623B28",
";  c #5F4B3C",
":  c #7D4023",
">  c #33464A",
",  c #3E5458",
"<  c #3B5D60",
"1  c #3E7B7E",
"2  c #4B655E",
"3  c #416165",
"4  c #4E696B",
"5  c #4C6E72",
"6  c #4F747A",
"7  c #637F7F",
"8  c #767C70",
"9  c #92431D",
"0  c #9A471F",
"q  c #814222",
"w  c #8F4725",
"e  c #834429",
"r  c #8C4A29",
"t  c #934521",
"y  c #994E2A",
"u  c #97512F",
"i  c #9A5432",
"p  c #94593B",
"a  c #A34C22",
"s  c #A75126",
"d  c #A7542D",
"f  c #AE542A",
"g  c #B3562B",
"h  c #B5592F",
"j  c #A05431",
"k  c #AD5731",
"l  c #A55934",
"z  c #A95D36",
"x  c #A45B39",
"c  c #AB5E3C",
"v  c #B55B30",
"b  c #BD5E32",
"n  c #AD6033",
"m  c #B66032",
"M  c #BD6134",
"N  c #B3613C",
"B  c #BC643A",
"V  c #C05D2F",
"C  c #C15F32",
"Z  c #C36234",
"A  c #CF6937",
"S  c #C26A3C",
"D  c #C8693E",
"F  c #D66E3C",
"G  c #DE753F",
"H  c #905D40",
"J  c #9D6749",
"K  c #8F6D57",
"L  c #A26344",
"P  c #B26540",
"I  c #B26D44",
"U  c #BB6A44",
"Y  c #A37F5F",
"T  c #B37D54",
"R  c #B97D50",
"E  c #CE7943",
"W  c #DF7940",
"Q  c #E57A42",
"!  c #5E807F",
"~  c #798275",
"^  c #AB815D",
"/  c #B0835E",
"(  c #A78463",
")  c #D4844F",
"_  c #DA874C",
"`  c #C38354",
"'  c #D48450",
"]  c #DE8953",
"[  c #E38248",
"{  c #EB8D4F",
"}  c #F18447",
"|  c #F28548",
" . c #E68F54",
".. c #398383",
"X. c #448485",
"o. c #4C8587",
"O. c #4A8689",
"+. c #568385",
"@. c #598680",
"#. c #55868B",
"$. c #548C8E",
"%. c #538C90",
"&. c #4B9596",
"*. c #4C9699",
"=. c #4B9B9C",
"-. c #539194",
";. c #539599",
":. c #5B9699",
">. c #579A9E",
",. c #618587",
"<. c #669592",
"1. c #4C9EA1",
"2. c #559DA0",
"3. c #629FA7",
"4. c #5FA3A3",
"5. c #5DA6AA",
"6. c #53AAAD",
"7. c #5EA9AC",
"8. c #5FA9AE",
"9. c #5AACAF",
"0. c #59ACB1",
/* pixels */
"              ..2 i u           ",
"        1 ;.0.4.Y _ m d         ",
"      6.8.;.< ; [ E b C H       ",
"    2.3.3 $ X r { S C C i @.    ",
"  &.8., o X O Z  .M b b g ~ *.  ",
"  9.6 X @ @ % W ] b b b V K 5.  ",
"X.5.> o @ + - } ) v b b C p :.1 ",
"=.>.# @ @ + = A B f f h M r $.=.",
"&.#.o @ @ + & V N U B v g q +.*.",
"=.;.X @ @ + - Q n 9 y c U x <.=.",
"&.#.o @ @ + - | ' h s 0 t e ,.*.",
"=.;.X @ @ + - | ` z b b h q %.1.",
"*.#.X @ @ + - } ( J b b b r +.*.",
"=.-.X @ @ + - | T l C b Z r $.=.",
"*.%.X @ @ + - | R l C b C r #.=.",
"*.%.o @ @ + - } ^ L C b C r #.=.",
"=.-.X @ @ + - } / L b b Z r $.1.",
"&.#.o @ @ + - | ' b b v h w ! *.",
"=.;.X @ @ + - | ) g g h B N 8 =.",
"*.#.X @ @ + - F S B U P j : 7 &.",
"=.;.+ @ @ + * b N i t 9 a q -.1.",
"O.5 . o o . = G d a g b Z r 4 o.",
"            e | ) b b b k e     ",
"              | ) b v l         ",
"              | ' d             ",
"              D I               "
};
