/* XPM */
static char *ba36df400fd74689d7a9d01ad2dfa6dbmz8ChmJTAgsiauIB[] = {
/* columns rows colors chars-per-pixel */
"26 26 178 2 ",
"   c None",
".  c #171109",
"X  c #19130A",
"o  c #1A130A",
"O  c #1C150B",
"+  c #0F0E10",
"@  c #100E10",
"#  c #110F10",
"$  c #141011",
"%  c #171311",
"&  c #221A0E",
"*  c #211C13",
"=  c #221917",
"-  c #2D1916",
";  c #2E1916",
":  c #2E1D16",
">  c #2B1D1B",
",  c #311916",
"<  c #311A16",
"1  c #321A17",
"2  c #331B17",
"3  c #341C17",
"4  c #351C18",
"5  c #361D19",
"6  c #371E19",
"7  c #391E1A",
"8  c #391F1A",
"9  c #2A2117",
"0  c #2A2216",
"q  c #2A2317",
"w  c #2D2518",
"e  c #2A201C",
"r  c #2A221D",
"t  c #29211E",
"y  c #322615",
"u  c #30211E",
"i  c #3B201B",
"p  c #38251B",
"a  c #3B221D",
"s  c #3C211C",
"d  c #3D221C",
"f  c #3D261F",
"g  c #332819",
"h  c #362D1C",
"j  c #3D311C",
"k  c #3C321C",
"l  c #2B2220",
"z  c #2D2321",
"x  c #2C2421",
"c  c #2F2623",
"v  c #332421",
"b  c #3A2420",
"n  c #302825",
"m  c #312825",
"M  c #3C2D22",
"N  c #362B28",
"B  c #362D29",
"V  c #372E2A",
"C  c #382F2C",
"Z  c #392F2C",
"A  c #3B3320",
"S  c #3A312D",
"D  c #3B322E",
"F  c #3D3330",
"G  c #3E3431",
"H  c #41241E",
"J  c #403517",
"K  c #403617",
"L  c #4A351B",
"P  c #49311E",
"I  c #4B391F",
"U  c #533B1E",
"Y  c #422520",
"T  c #442720",
"R  c #452721",
"E  c #432E20",
"W  c #412A24",
"Q  c #442E27",
"!  c #482922",
"~  c #492923",
"^  c #492D20",
"/  c #4A2B24",
"(  c #4C2B24",
")  c #4A2E27",
"_  c #4E2D25",
"`  c #4E2C26",
"'  c #432F2B",
"]  c #403420",
"[  c #473124",
"{  c #4D3321",
"}  c #463D24",
"|  c #41352B",
" . c #503120",
".. c #523E21",
"X. c #533E22",
"o. c #543F22",
"O. c #56322A",
"+. c #59342B",
"@. c #59342C",
"#. c #5A352D",
"$. c #433835",
"%. c #433935",
"&. c #433B35",
"*. c #463C38",
"=. c #4C3F3B",
"-. c #5B3E37",
";. c #643F36",
":. c #56481B",
">. c #5B491C",
",. c #5D481D",
"<. c #68571E",
"1. c #6F5D1F",
"2. c #705D1F",
"3. c #574223",
"4. c #594324",
"5. c #5D4625",
"6. c #5D4F29",
"7. c #4E433F",
"8. c #604A27",
"9. c #62402D",
"0. c #65462E",
"q. c #634A28",
"w. c #68482E",
"e. c #6B592F",
"r. c #74502E",
"t. c #715F2A",
"y. c #735F2B",
"u. c #6A4B31",
"i. c #6C453C",
"p. c #645536",
"a. c #785A31",
"s. c #795B32",
"d. c #7B5E37",
"f. c #786232",
"g. c #7C6332",
"h. c #79653B",
"j. c #7D6D39",
"k. c #704940",
"l. c #724B42",
"z. c #625746",
"x. c #6C604D",
"c. c #756542",
"v. c #71634D",
"b. c #76684F",
"n. c #6B6558",
"m. c #7B6354",
"M. c #825C34",
"N. c #815C3C",
"B. c #846D37",
"V. c #896E36",
"C. c #83643B",
"Z. c #81653E",
"A. c #84653C",
"S. c #856B39",
"D. c #867131",
"F. c #8F783C",
"G. c #91793F",
"H. c #8C6D44",
"J. c #85704D",
"K. c #917241",
"L. c #977D41",
"P. c #9E7A41",
"I. c #97704A",
"U. c #947749",
"Y. c #95754B",
"T. c #A57F50",
"R. c #BA8343",
"E. c #B18456",
"W. c #9B8472",
"Q. c #B7916C",
"!. c #D5A97D",
"~. c #D9AC7C",
"^. c #EABD85",
"/. c #F6C085",
"(. c #FBC58A",
"). c #D3C3BE",
"_. c #EAC7A5",
"`. c #F1CEA9",
/* pixels */
"                                                    ",
"                        E p :                       ",
"                        E.I.[                       ",
"                        ^.~.K.                      ",
"            ).        V.Q.!.N.                      ",
"          `._.        u m.W.Q z                     ",
"            (./.    ) M h.x.n C &.                  ",
"              T.  @.@.0.L.J.&.t x V D &.            ",
"              H.s.9.` T w.G.z.x C V V F             ",
"              U.g.{ 7 4 ( S.v.| x *.n x G           ",
"                X.,     4 f.b.p.t D =.v             ",
"                        , 8.c.j.} l 7.'  .          ",
"                      , , P e.A 6.t N f r.R.        ",
"                      , , ! u.h k L     M.P.        ",
"                      , i / i.W * >.U ^     n.      ",
"                      3 T Y k.k.> J 1.,.            ",
"                      s ` H ;.-.b 9 <.2.            ",
"                      O.! s @.= % % :.              ",
"                    +.! 4 7     # # J               ",
"                    a - - ,     + #                 ",
"                    ] g 9     k w 9                 ",
"                    F.B.      D.t.t.                ",
"                    C.s.      3.4.                  ",
"                  U.A.        5.q.                  ",
"                  Z.d.        X.o.I                 ",
"                O y y o       . & & o               "
};
