/* XPM */
static char *_67149ff55874305876f33877edaff50GeAYrHHxlsZpsqlc[] = {
/* columns rows colors chars-per-pixel */
"40 35 21 1 ",
"  c None",
". c #0C0C0A",
"X c #1E2E12",
"o c #3F1222",
"O c #1F2533",
"+ c #3B3B2C",
"@ c #422306",
"# c #452305",
"$ c #4A341A",
"% c #3D5D22",
"& c #714116",
"* c #38525E",
"= c #727061",
"- c #A73928",
"; c #9C5A1C",
": c #B76C2C",
"> c #5D8E35",
", c #78B943",
"< c #5C8FA7",
"1 c #9D9A8B",
"2 c #8BC7E1",
/* pixels */
"                                        ",
"                  oo oo                 ",
"                 o--o-o                 ",
"                o-----XX                ",
"               X>,,,>-->X               ",
"              X%,,,,,>-,,X              ",
"             X%%,,,,,,,,,>X             ",
"         XXXXX%%>,,,,,,,,%.             ",
"         X,,,,%%%>,,,,,,>%.             ",
"          X2>>,,%%>%..XX..%             ",
"          .2,2%>,%>>..%%..$$            ",
"          .<.2%X%>>>2%>,XX2$            ",
"          .1.<XXX>,22%>,X22$            ",
"           .1..XX%>22%%%%22$            ",
"         ..11==..X>22%>>,22$            ",
"         .==1.....X2<%XX>2<$            ",
"          .+X>>%..&XXX..XO..            ",
"          .X>>>>.&&&,,>,,O*<.           ",
"         .=X>>>>XX&&;,,,,O*<.           ",
"         .1.%>>XXX%;;;,,,O*<.           ",
"         .11..XXXX%%;;;,>..*.           ",
"         .1.1....XX%%222....            ",
"         ...1=.....*2***2..             ",
"           .==+.**<<2*<<2*.             ",
"           .==+.**<<22222*.             ",
"           .====@@&&;;;;;@.             ",
"           .=+=.<<<<.22222.             ",
"           ..+=.****.<<<<<.             ",
"             .=.***O.<<<<<.             ",
"             .........<<<.              ",
"              ...........               ",
"              ..... .@@@.               ",
"              ..... .###.               ",
"              ..    .###.               ",
"                    .::::.              "
};
