/* XPM */
static char *_63a4aa6ce2a40c0d9d8dfff2177a4d5ndHFGcQ59Pe07oM5[] = {
/* columns rows colors chars-per-pixel */
"26 26 123 2 ",
"   c None",
".  c #704D7F",
"X  c #EE231F",
"o  c #EE241F",
"O  c #D82421",
"+  c #D92521",
"@  c #DC2521",
"#  c #DE2522",
"$  c #DF2522",
"%  c #DA2D32",
"&  c #DB2E33",
"*  c #D82F35",
"=  c #DE3337",
"-  c #E02622",
";  c #E22622",
":  c #E32622",
">  c #E42622",
",  c #E52622",
"<  c #E52723",
"1  c #E62723",
"2  c #EB2621",
"3  c #E82723",
"4  c #E92723",
"5  c #EA2723",
"6  c #EB2723",
"7  c #EE2420",
"8  c #EF2420",
"9  c #EF2520",
"0  c #EE2521",
"q  c #EE2622",
"w  c #EF2722",
"e  c #EE2723",
"r  c #EE2823",
"t  c #E82824",
"y  c #EB2824",
"u  c #EB2926",
"i  c #EC2824",
"p  c #ED2824",
"a  c #ED2925",
"s  c #EE2824",
"d  c #EF2824",
"f  c #EE2925",
"g  c #E42A2B",
"h  c #EE2E2A",
"j  c #EF2F2B",
"k  c #EF3632",
"l  c #EF3633",
"z  c #F13733",
"x  c #E8413E",
"c  c #EF403D",
"v  c #F0433F",
"b  c #A5415F",
"n  c #DA4E55",
"m  c #F04744",
"M  c #F14C49",
"N  c #F14E4B",
"B  c #E35A57",
"V  c #F25551",
"C  c #F25956",
"Z  c #F25B57",
"A  c #F25B58",
"S  c #F35C59",
"D  c #F45E5B",
"F  c #F36663",
"G  c #F36C69",
"H  c #F47572",
"J  c #F57C79",
"K  c #F57C7A",
"L  c #F67F7C",
"P  c #375CAC",
"I  c #3B5DAB",
"U  c #3A5EAD",
"Y  c #51589C",
"T  c #66538E",
"R  c #525EA3",
"E  c #5166AC",
"W  c #5570B4",
"Q  c #7A79AD",
"!  c #647FB7",
"~  c #6680BE",
"^  c #6883C0",
"/  c #6B84C0",
"(  c #7B92C7",
")  c #F58482",
"_  c #F68986",
"`  c #F78986",
"'  c #F68B89",
"]  c #F79492",
"[  c #E09BA4",
"{  c #F8A3A1",
"}  c #F7A8A6",
"|  c #F9AFAD",
" . c #F9B0AE",
".. c #F9B4B2",
"X. c #F9B4B3",
"o. c #FBC0BE",
"O. c #8B9FCE",
"+. c #B5C2DF",
"@. c #BFCAE4",
"#. c #FBCECD",
"$. c #FCD8D7",
"%. c #F5DADC",
"&. c #FCDFDE",
"*. c #C7D1E7",
"=. c #E6DCE6",
"-. c #E6E3E6",
";. c #EDF5FC",
":. c #F6F3F6",
">. c #FEF1F1",
",. c #FFF5F5",
"<. c #FEF6F6",
"1. c #FEF7F7",
"2. c #F5F7FB",
"3. c #F6F7FA",
"4. c #F6F7FB",
"5. c #F7F8FB",
"6. c #F6FDFF",
"7. c #FFFBFA",
"8. c #F8F9FC",
"9. c #FEFCFD",
"0. c #FCFCFE",
"q. c #FFFEFE",
"w. c white",
/* pixels */
"                                                    ",
"                                                    ",
"                                                    ",
"                    1 4 4 4 4 :                     ",
"                1 : 4 p p p p 4 : 1                 ",
"              1 p p p p p p p p p p 1               ",
"            4 p p p p p p p p p p p p u             ",
"          1 p o N | X.H e p p e p ' X.} x           ",
"        : p p N ] w.w.o.S j e k F $.w.1.J B         ",
"        : p p  .w.w.8.2.%.c X C >.w.w.2.:.-.        ",
"        $ p p X.w.8.O.^ Q = e C 1.w.*./ / !         ",
"        1 p p X.w.2.~ P Y * e A 1.w.+.I U .         ",
"      4 p p p { >.5.( E T % e V &.7.@.W R b 4       ",
"      4 p p p k J w.;.[ % u r j m #.6.=.n g 4       ",
"      4 p p p e v ) ` D e p p e p G ` L z e 4       ",
"      4 p p p p e e e e p p p p p e e e e p 4       ",
"      4 p p p p p p p p p p p p p p p p p p 4       ",
"      4 p p p p p p p p p p p p p p p p p p 4       ",
"      4 p p p p p p p p p p p p p p p p p p 4       ",
"      4 p p 4 p p p p u 4 4 p p p p p 4 p p 4       ",
"      4 p 4   : p p p $     : p p p :   4 p 4       ",
"      4 :       $ p p :     1 p p $       : 4       ",
"      $           : 1 +     + 1 :           $       ",
"                                                    ",
"                                                    ",
"                                                    "
};
