/* XPM */
static char *c41aacf2b7f04384fdcdd9c6dcb80191s602ZO6FUrWlpfON[] = {
/* columns rows colors chars-per-pixel */
"40 35 115 2 ",
"   c None",
".  c #0C0C08",
"X  c #0C0E08",
"o  c #0C0C0A",
"O  c #0D0C0A",
"+  c #0C0D0A",
"@  c #0D0D0A",
"#  c #0C0C0B",
"$  c #0C0D0B",
"%  c #0D0D0B",
"&  c #0E0C0A",
"*  c #0C0E0A",
"=  c #0E0E0A",
"-  c #0E0E0B",
";  c #0C0E0C",
":  c #0D0E0C",
">  c #1E2E10",
",  c #1E2E11",
"<  c #1E2C12",
"1  c #1E2E12",
"2  c #1F2E12",
"3  c #1E2F12",
"4  c #1E2E13",
"5  c #1F2F13",
"6  c #1E3012",
"7  c #1F3015",
"8  c #202E12",
"9  c #3E1222",
"0  c #3F1222",
"q  c #1F2533",
"w  c #3B3B2C",
"e  c #402306",
"r  c #422306",
"t  c #422307",
"y  c #452205",
"u  c #452305",
"i  c #422308",
"p  c #422508",
"a  c #4A341A",
"s  c #4A351A",
"d  c #4A361C",
"f  c #3D5D20",
"g  c #3D5C22",
"h  c #3D5D22",
"j  c #3F5D22",
"k  c #3D5F22",
"l  c #3E5E23",
"z  c #3E5F24",
"x  c #714116",
"c  c #714117",
"v  c #714218",
"b  c #38505D",
"n  c #38515D",
"m  c #38525E",
"M  c #39525E",
"N  c #38535F",
"B  c #39535F",
"V  c #3A525E",
"C  c #385360",
"Z  c #716F60",
"A  c #727061",
"S  c #727063",
"D  c #A63928",
"F  c #A73928",
"G  c #A73B28",
"H  c #9B5A1C",
"J  c #9C5A1C",
"K  c #9C5A1E",
"L  c #9C5B1E",
"P  c #B56B2E",
"I  c #B56C2C",
"U  c #B76C2C",
"Y  c #5C8C35",
"T  c #5D8C35",
"R  c #5C8D35",
"E  c #5D8D35",
"W  c #5D8E35",
"Q  c #5F8E35",
"!  c #5D8E36",
"~  c #5D8E37",
"^  c #78B743",
"/  c #77B843",
"(  c #78B941",
")  c #78B843",
"_  c #78B943",
"`  c #7AB943",
"'  c #78BB43",
"]  c #78B844",
"[  c #78B944",
"{  c #78B945",
"}  c #598DA5",
"|  c #5B8DA5",
" . c #5C8DA5",
".. c #5E8DA5",
"X. c #5C8EA5",
"o. c #5C8FA5",
"O. c #5C8EA6",
"+. c #5C8FA6",
"@. c #5C8FA7",
"#. c #5E8FA7",
"$. c #9B9889",
"%. c #9C998A",
"&. c #9D9A8B",
"*. c #89C5DF",
"=. c #8AC5DF",
"-. c #8BC5DF",
";. c #8AC4E0",
":. c #88C6E0",
">. c #89C7E1",
",. c #8AC6E0",
"<. c #8BC6E0",
"1. c #8BC7E0",
"2. c #8AC7E1",
"3. c #8BC7E1",
"4. c #8BC6E2",
/* pixels */
"                                                                                ",
"                                    0 0   0 0                                   ",
"                                    0 F 0 F F 0                                 ",
"                                  1 8 F F F F F 0                               ",
"                                6 W F F W _ _ _ W 1                             ",
"                              1 _ _ F W _ _ _ _ _ h 1                           ",
"                            1 W _ _ _ _ _ _ _ _ _ h h 1                         ",
"                            o h _ _ _ _ _ _ _ _ W h h 6 6 6 6 1                 ",
"                            o h W ^ ^ ^ ^ _ _ W h h h _ _ { ^ 1                 ",
"                            h o o 1 1 o o h W h h _ _ W W :.1                   ",
"                          a d o o h h o ; W W h _ W h :.^ :.o                   ",
"                          a :.7 1 _ W h :.W W W h 1 h :.o | o o                 ",
"                          a :.:.1 / W h :.:.{ W 1 1 1 | o o $.o                 ",
"                          a :.:.h h h h :.:.W h 1 1 o o %.%.o                   ",
"                          a :.:.{ W W h :.:.W 1 o o Z A A %.%.o o               ",
"                          a ..=.W 1 1 h ..=.1 o o o w A %.%.A A o               ",
"                            o N 6 o o 1 6 1 x h W W 1 Z A A w o                 ",
"                            o N _ _ W _ _ x x W W W W 1 A A A o                 ",
"                            o N _ _ _ _ J x x W W W W 1 A A %.A o               ",
"                            o N _ _ _ J J J h 1 W W h o %.A %.%.o               ",
"                            o o W { J J J h h 1 1 o o Z %.%.$.%.o               ",
"                            o o ; =.=.=.z h 1 o o o o w %.%.o $.o               ",
"                            o o :.N N N :.N ; o o o w w A %.o o o               ",
"                            o N :.....C :.....N N o w w A A o                   ",
"                            o N =.=.=.=.=.....N N o A w A A o                   ",
"                            o r H J J J J v x p i ; Z A A A o                   ",
"                            o q r :.:.:.:.:.x ......o A w Z o                   ",
"                            o q o ..........o N N N o A w o o                   ",
"                            o q o | ........o q N N o Z o                       ",
"                            o o o o | ....o o o o o o o o                       ",
"                              o o o o o o r r r u u I                           ",
"                              o o o o o r r r r u u I                           ",
"                                o o o o o o o o o o P                           ",
"                                o o o o o         o o                           ",
"                              o o o o o o                                       "
};
