/* XPM */
static char *_54d3c0902584ad4a1bb88c716d81a20TcMKBmw6RX0hkLNu[] = {
/* columns rows colors chars-per-pixel */
"64 64 26 1 ",
"  c None",
". c #13111C",
"X c #11131C",
"o c #13121C",
"O c #12131C",
"+ c #13131C",
"@ c #13131E",
"# c #27130F",
"$ c #293757",
"% c #8E5252",
"& c #8F5252",
"* c #8E5253",
"= c #CC8B7E",
"- c #4A6082",
"; c #4A6083",
": c #6985A0",
"> c #E9B5A1",
", c #E8B5A3",
"< c #E9B5A3",
"1 c #EBB5A3",
"2 c #F4CFA8",
"3 c #F4CFA9",
"4 c #F4CFAB",
"5 c #94AFC0",
"6 c #FFFFFD",
"7 c white",
/* pixels */
"                                                                ",
"                                                                ",
"                                                                ",
"                                                                ",
"                                                                ",
"                                                                ",
"                                                                ",
"                                                                ",
"                                                                ",
"                               +++++                            ",
"                              +%===%+                           ",
"                             +%======+                          ",
"                             +===<44=+                          ",
"                             +==<4444+                          ",
"                             +%=+++=++                          ",
"                             +<==#%4#+                          ",
"                             +<=<<<44%                          ",
"                              +%<=77=+                          ",
"                               +%<<<=+                          ",
"                               ++%%++                           ",
"                             +++%%%++                           ",
"                           ++<<==%%==+                          ",
"                          +<444444=44<+                         ",
"                         +<<4444444444+                         ",
"                         +<44=<444<<44+                         ",
"                        +%44=+==<<<<<=+                         ",
"                        +444%++%%===%+                          ",
"                        +44=+%%======+                          ",
"                       +=4<++%%=<<=<=+                          ",
"                       +<4%+ +%=<<<<%+                          ",
"                       +<4+  +%%<444+                           ",
"                       %44+  +%%<444+                           ",
"                       +<=+  +=%=4=4++                          ",
"                       +44<++$===<%<+%+                         ",
"                       +44%++:$:5555-%+                         ",
"                       +%4<++-:55555:++                         ",
"                        ++++%$--5555:<+                         ",
"                           +%<$$-55:44<+                        ",
"                           +=444$$$=<44<+                       ",
"                           +=444+++%<<<<=+                      ",
"                           %=44=+ +++=<<<+                      ",
"                          +=<<<++  +++=<<+                      ",
"                          +=<<%+  +%%%%++                       ",
"                         +%=%%+  +%%%++                         ",
"                         +%==%+ +%%%+                           ",
"                         +==%+  +%%+                            ",
"                         +==+   +%=+                            ",
"                         +=%+   +==+                            ",
"                        +%=+    +++                             ",
"                        +%%+                                    ",
"                       +%%+                                     ",
"                       +%%+                                     ",
"                       +%%+                                     ",
"                       +%%+                                     ",
"                        ++                                      ",
"                                                                ",
"                                                                ",
"                                                                ",
"                                                                ",
"                                                                ",
"                                                                ",
"                                                                ",
"                                                                ",
"                                                                "
};
