/* XPM */
static char *b56954b82c13494cfb206824d96afae5R0sln3sf8tljrJFC[] = {
/* columns rows colors chars-per-pixel */
"64 64 25 1 ",
"  c None",
". c #190D09",
"X c #071213",
"o c #121515",
"O c #141818",
"+ c #3A1813",
"@ c #381A13",
"# c #3A1A13",
"$ c #3A1B13",
"% c #1F2525",
"& c #1F2527",
"* c #202728",
"= c #33383A",
"- c #722E15",
"; c #612D3F",
": c #495154",
"> c #545D60",
", c #555D60",
"< c #6C767A",
"1 c #9B0C2E",
"2 c #88532F",
"3 c #B0B08F",
"4 c #9FBBBA",
"5 c #DEAA87",
"6 c #EFEFCB",
/* pixels */
"                                                                ",
"                                                                ",
"                                                                ",
"                                                                ",
"                                                                ",
"                                                                ",
"                                                                ",
"                                                                ",
"                                                                ",
"                                      55                        ",
"                               4 4   555                        ",
"                            44=<=<=44 55                        ",
"                           <<<=&<&=<<<&&                        ",
"                           <&&<<<<<&&<,,                        ",
"                            o=&ooo&=o,,<                        ",
"                             ==&o&== ,,<                        ",
"                             o:::::o ,,4                        ",
"                           22&=o&o=&  &&&                       ",
"                           ..o:o&o:o  ,,,                       ",
"                           ...oo&oo&4,,,<                       ",
"                       44<&...&&&&&o&<,,4                       ",
"                       <::&:..Xoooo&::&&&                       ",
"                      4:::&<XX1::::o4<&,<                       ",
"                      <:::&<X13&&&&o<<&,<                       ",
"                      <:&&&<13;;&&&o<<&,4                       ",
"                      &&::&:1;36ooo&<:&<                        ",
"                      4:::&:1;363&&&<:&4                        ",
"                      <:::&&1;:36::o&&                          ",
"                      :::&:&1;&363&oo&                          ",
"                      &&&::o&1&o36&o&o                          ",
"                        &&&o&oo&363o&o-                         ",
"                           #:&o&o36&::-                         ",
"                           -#o&&&363&#-                         ",
"                           -##o&o&36##-                         ",
"                           -######363#-                         ",
"                          --#######36---                        ",
"                          --#######363--                        ",
"                          --#####-#-36--                        ",
"                          --#-##--#-363-                        ",
"                         ------------36-                        ",
"                         -#-----------#-                        ",
"                         -#-----##---###                        ",
"                          ##-#-###--###                         ",
"                           #####  ####                          ",
"                           :*##O  ##::                          ",
"                           :***O    O*                          ",
"                           :***O   OO*                          ",
"                           :**O    OO*                          ",
"                           ***O    OO*                          ",
"                           ::*O                                 ",
"                            ::O                                 ",
"                            ::O                                 ",
"                            :*                                  ",
"                            *O                                  ",
"                            *OO                                 ",
"                            OOO                                 ",
"                            OO                                  ",
"                                                                ",
"                                                                ",
"                                                                ",
"                                                                ",
"                                                                ",
"                                                                ",
"                                                                "
};
