/* XPM */
static char *_a63917a3072474ce88dc50c91617bf50r7an2qzlekBtFGG[] = {
/* columns rows colors chars-per-pixel */
"64 64 188 2 ",
"   c None",
".  c #5B0A00",
"X  c #5D0D00",
"o  c #411100",
"O  c #641200",
"+  c #671601",
"@  c #6B1C0F",
"#  c #69161E",
"$  c #51200F",
"%  c #72220B",
"&  c #782D0D",
"*  c #652C11",
"=  c #6F2518",
"-  c #672A18",
";  c #7B2D17",
":  c #7C2E17",
">  c #7F311A",
",  c #7E3D1F",
"<  c #661E22",
"1  c #631C2A",
"2  c #651C2F",
"3  c #761A33",
"4  c #6B2327",
"5  c #6E232A",
"6  c #682A2B",
"7  c #6E2C2E",
"8  c #722722",
"9  c #712527",
"0  c #712822",
"q  c #712C27",
"w  c #752C26",
"e  c #7D2B20",
"r  c #782B25",
"t  c #72212A",
"y  c #7B232F",
"u  c #7D262F",
"i  c #752B2A",
"p  c #732B2C",
"a  c #712B2E",
"s  c #732A2E",
"d  c #732B2E",
"f  c #702D2E",
"g  c #712D2E",
"h  c #78282B",
"j  c #782F28",
"k  c #782E2B",
"l  c #792A2F",
"z  c #6F302B",
"x  c #76302E",
"c  c #78332C",
"v  c #682931",
"b  c #6E2B36",
"n  c #6F2B36",
"m  c #6F2D37",
"M  c #6D2E36",
"N  c #792735",
"B  c #712A31",
"V  c #722B30",
"C  c #722A31",
"Z  c #732A31",
"A  c #722B31",
"S  c #732B31",
"D  c #772A32",
"F  c #762B32",
"G  c #702A35",
"H  c #732B36",
"J  c #772937",
"K  c #7C2C35",
"L  c #792638",
"P  c #79263A",
"I  c #78253F",
"U  c #752A3F",
"Y  c #762C3D",
"T  c #752E3C",
"R  c #723031",
"E  c #763136",
"W  c #773634",
"Q  c #74393D",
"!  c #794323",
"~  c #612042",
"^  c #782245",
"/  c #732940",
"(  c #7A2A45",
")  c #772555",
"_  c #82332C",
"`  c #832E33",
"'  c #873736",
"]  c #8D3F35",
"[  c #833038",
"{  c #84383A",
"}  c #84393A",
"|  c #86383A",
" . c #863F3B",
".. c #8A3F3C",
"X. c #8D3F3F",
"o. c #905229",
"O. c #8B4134",
"+. c #8E4138",
"@. c #9D4031",
"#. c #934338",
"$. c #954639",
"%. c #93463C",
"&. c #94463C",
"*. c #95463F",
"=. c #96463F",
"-. c #9D433A",
";. c #9B483A",
":. c #96523D",
">. c #A74A3B",
",. c #8B3041",
"<. c #883644",
"1. c #8B3840",
"2. c #883D41",
"3. c #8A3E40",
"4. c #8A3D43",
"5. c #893B49",
"6. c #8F3F4C",
"7. c #903E42",
"8. c #993D42",
"9. c #983E47",
"0. c #9F3A4C",
"q. c #8F4544",
"w. c #944445",
"e. c #944645",
"r. c #9C4241",
"t. c #984346",
"y. c #9A4644",
"u. c #9D4841",
"i. c #9F4A43",
"p. c #97434F",
"a. c #9C404B",
"s. c #9C424A",
"d. c #9C424B",
"f. c #9E424B",
"g. c #994749",
"h. c #9B464D",
"j. c #95494B",
"k. c #93484D",
"l. c #964A4E",
"z. c #9E4251",
"x. c #9A4854",
"c. c #A2494F",
"v. c #A35A49",
"b. c #BE564D",
"n. c #B76444",
"m. c #9A466A",
"M. c #C76854",
"N. c #CF8139",
"B. c #E38C3D",
"V. c #F88A33",
"C. c #F3B627",
"Z. c #F3A930",
"A. c #FFBA32",
"S. c #FFBA33",
"D. c #F9B138",
"F. c #FFBF3A",
"G. c #E7C909",
"H. c #F6C31B",
"J. c #F1CE28",
"K. c #FFC828",
"L. c #FFD122",
"P. c #FADB29",
"I. c #FFDA2D",
"U. c #F4C336",
"Y. c #FCC838",
"T. c #FCC938",
"R. c #FFD23B",
"E. c #FBE223",
"W. c #BF8253",
"Q. c #D29252",
"!. c #F6B14A",
"~. c #FFBC4D",
"^. c #FBAD5B",
"/. c #F9AF5B",
"(. c #FAAE5B",
"). c #FBAE5B",
"_. c #FAAF5B",
"`. c #FBAF5B",
"'. c #FEAE59",
"]. c #F8BD57",
"[. c #FFB06A",
"{. c #F8B469",
"}. c #FBD75E",
"|. c #FCD85E",
" X c #FCD95E",
".X c #FCDA5E",
"XX c #FFE74C",
"oX c #FFE764",
/* pixels */
"                                                                                                                                ",
"                                                                                                                                ",
"                                                                                                                                ",
"                                                                                                                                ",
"                                                                                                                                ",
"                                                                                                                                ",
"                                                                                                                                ",
"                                                                                                                                ",
"                                                                                                                                ",
"                                                                                                                                ",
"                                                                                                                                ",
"                                                                                                                                ",
"                                                                                                                                ",
"                                                                                                                                ",
"                                                                                                                                ",
"                    `.`.`.`.`.`.`.`.`.`.`.`.`.`.`.`.`.`.`.`.`.`.`.`.`.`.`.`.`.`.`.`.`.`.`.`.`.                                  ",
"                `.`.`.`.`.`.`.`.`.`.`.`.`.`.`.`.`.`.`.`.`.`.`.`.`.`.`.`.`.`.`.`.`.`.`.`.`.`.`.                                  ",
"              `.`.`.Z Z `.`.`.`.d.d.d.d.d.d.d.d.d.d.d.d.d.d.d.d.d.d.d.d.d.d.d.d.d.d.d.g g n.V.                                  ",
"            `.`.Z Z Z Z `.`.`.`.d.d.d.d.d.d.d.d.d.d.d.d.d.d.d.d.d.d.d.d.d.d.d.d.d.d.g g g n.V.                                  ",
"            `.`.Z Z Z Z `.`.`.`.{ { { { { { { { { { { { { { { { { { { { { { { { { g g g g n.V.                                  ",
"          `.`.Z Z Z Z Z `.`.|.}.Z Z Z Z Z Z Z Z Z Z Z Z Z Z Z Z Z Z Z Z Z Z Z Z Z g g g g W.T.                                  ",
"          `.`.Z Z Z Z Z `.`.|.}.Z Z Z Z Z Z Z Z Z Z Z Z Z Z Z Z Z Z Z Z Z Z Z Z Z g g g g W.T.                                  ",
"          `.`.Z Z Z Z Z `.`.|.|.d.d.d.d.d.d.d.d.d.d.d.d.d.d.d.d.d.d.d.d.d.d.d.d.d.g g g g W.T.                                  ",
"          `.`.Z Z Z Z Z `.`.|.|.d.d.d.d.d.d.d.d.d.d.d.d.F.R.R.P.F.d.d.d.d.d.d.d.d.g g g g W.T.                                  ",
"          `.`.Z Z Z Z Z `.`.|.|.d.d.d.d.d.d.d.d.d.d.d.d.P.R.U.I.R.P.d.d.d.d.d.d.d.g g g g W.T.                                  ",
"          `.`.Z Z Z Z Z `.`.|.|.Z Z Z Z Z Z Z Z Z Z Z Z Z F.R.S.R.R.Z Z Z Z Z Z Z g g g g W.T.                                  ",
"          `.`.Z Z Z Z Z `.`.|.|.Z Z Z Z Z Z Z Z Z Z R.P.R.P.R.R.F.R.R.S.P.Z Z Z Z { P.R.R.F.T.                                  ",
"            `.`.Z Z Z Z `.`.|.|.{ { { { { { { { { { S.C.G.R.R.R.R.R.F.R.R.{ { { { d.R.H.S.P.T.                                  ",
"            `.`.`.Z Z Z `.`.|.|.d.d.d.d.d.d.d.d.d.S.P.R.R.S.m.R.R.F.R.R.d.d.d.d.d.d.R.P.R.R.T.                                  ",
"              `.`.`.Z Z `.`.|.|.d.d.d.d.d.R.R.S.R.R.*.p.o.R.R.F.R.S.F.R.P.P.R.F.R.P.R.t ~ R.F.R.R.R.P.                          ",
"                `.`.`.`.`.`.|.|.S.F.R.S.R.R.S.F.P.R.R.R.P.R.R.P.R.R.S.R.R.R.F.S.F.F.R.R.R.R.K.J.L.E.R.                          ",
"                    `.`.`.`.|.|.R.R.F.R.F.P.R.R.P.R.P.R.P.P.F.R.R.P.R.F.P.R.R.R.R.F.S.F.F.P.R.R.P.P.R.                          ",
"                            `.`.`.`.`.`.`.`.`.`.`.`.`.`.`.`.`.|.|.|.|.|.|.|.|.|.|.|.|.|.|.|.|.|.|.|.|.|.|.|.|.|.                ",
"                            `.`.`.`.`.`.`.`.`.`.`.`.`.`.`.`.`.|.|.|.|.|.|.|.|.|.|.|.|.|.|.|.|.|.|.|.|.|.|.|.|.|.                ",
"                            `.`.d d d d d d d d d d d d - `.`.|.|.Q Q x * |.|.n n n n n n n n n |.|.n / E o |.|.                ",
"                            `.`.d d d d d d d d d d d d - `.`.|.|.Q Q x * |.|.n d d d d d d d d |.|.n ) U $ |.|.                ",
"                            `.`.w.w.w.w.w.w.w.w.w.w.w.w.' `.`.|.|.w.w.*...|.|.r.r.r.r.r.r.r.r.r.|.|.k.k.:.! |.|.                ",
"                            `.`.w.w.w.w.w.w.w.w.w.w.w.w.' `.`.|.|.w.w.*...|.|.r.r.r.r.r.r.r.r.r.|.|.k.l.v., |.|.                ",
"                            `.`.w.w.w.w.w.w.w.w.w.w.w.w.' `.`.|.|.w.w.*...|.|.r.r.-.r.r.r.r.r.r.|.|.k.x.%.: |.|.                ",
"                            `.`.d d d d d d d d d d d d - `.`.|.|.d d r e |.|.d y ` Q.oX2 < 9 d |.|.n J w O |.|.                ",
"                            `.`.d d d d d d d d d d d d - `.`.|.|.d d r = |.|.d N B.{.c ].& d d |.|.n Y W . |.|.                ",
"                            `.`.d d d d d d d d d d d d - `.`.|.|.d d K @ |.|.j M.~.~.# [.Z.j [ |.|.n Y 0 X |.|.                ",
"                            `.`.y.y.y.y.y.y.y.y.y.y.y.t.' `.`.|.|.y.y.g.$.|.|.q.>.b.D.u '.@.9.u.|.|.k.h.*.> |.|.                ",
"                            `.`.y.y.y.y.y.y.y.y.y.y.y.t.' `.`.|.|.y.y.g...|.|.j.u.0.N.!.,.8.z.;.|.|.k.c.#.; |.|.                ",
"                            `.`.y.y.y.y.y.y.y.y.y.y.y.1.D `.`.|.|.y.y.4._ |.|.4.X.] 7.<.O.4.5. .|.|.k.6.+.% |.|.                ",
"                            `.`.P P P P P P P P P P P 1.1 `.`.|.|.5 P P 1 |.|.I l 8 ( D 4 H H 7 |.|.n Y i + |.|.                ",
"                      P.R.F.`.`.P P P P P P P P P P P 3 1 `.`.|.|.5 P 3 1 |.|.5 R h q M M z v 6 |.|.n ^ i + |.|.F.P.            ",
"                      R.P.F.`.`.`.`.`.`.`.`.`.`.`.`.`.`.`.`.`.|.|.|.|.|.|.|.|.|.|.|.|.|.|.|.|.|.|.|.|.|.|.|.|.|.XXP.            ",
"                    F.R.F.R.`.`.`.`.`.`.`.`.`.`.`.`.`.`.`.`.`.|.|.|.|.|.|.|.|.|.|.|.|.|.|.|.|.|.|.|.|.|.|.|.|.|.P.XXF.          ",
"                                                                                                                                ",
"                                                                                                                                ",
"                                                                                                                                ",
"                                                                                                                                ",
"                                                                                                                                ",
"                                                                                                                                ",
"                                                                                                                                ",
"                                                                                                                                ",
"                                                                                                                                ",
"                                                                                                                                ",
"                                                                                                                                ",
"                                                                                                                                ",
"                                                                                                                                ",
"                                                                                                                                ",
"                                                                                                                                "
};
