/* XPM */
static char *result[] = {
/* columns rows colors chars-per-pixel */
"64 64 59 1 ",
"  c #0D0F0F",
". c #190D09",
"X c #051213",
"o c #071213",
"O c #121515",
"+ c #131515",
"@ c #141818",
"# c #171B1B",
"$ c #381A13",
"% c #3A1A13",
"& c #3A1B13",
"* c #202728",
"= c #31383A",
"- c #32383A",
"; c #33383A",
": c #33383B",
"> c #333A3A",
", c #702E14",
"< c #722E14",
"1 c #722E15",
"2 c #722E17",
"3 c #612D3F",
"4 c #632D3F",
"5 c #612F3F",
"6 c #566165",
"7 c #6C7678",
"8 c #6C747A",
"9 c #6C767A",
"0 c #6D767A",
"q c #9B0C2E",
"w c #88532F",
"e c #86593B",
"r c #5D848D",
"t c #5D858D",
"y c #5F858D",
"u c #5D878D",
"i c #B0B08D",
"p c #B0B08F",
"a c #B1B08F",
"s c #9FBBB8",
"d c #9FB9BA",
"f c #9FBABA",
"g c #9FBBBA",
"h c #DEAA86",
"j c #DEAA87",
"k c #A8C0AD",
"l c #A8C0AE",
"z c #A8C0AF",
"x c #A9C0AF",
"c c #A8C1AF",
"v c #AAC0AF",
"b c #A8C2AF",
"n c #EFEFCB",
"m c #F1F2CB",
"M c #F6F3D8",
"N c #F6F3D9",
"B c #F7F3D9",
"V c #F6F3DB",
"C c None",
/* pixels */
"CCCCCCCCCCCCCCCCCCCCCCCCCCCCCCCCCCCCCCCCCCCCCCCCCCCCCCCCCCCCCCCC",
"CCCCCCCCCCCCCCCCCCCCCCCCCCCCCCCCCCCCCCCCCCCCCCCCCCCCCCCCCCCCCCCC",
"CCCCCCCCCCCCCCCCCCCCCCCCCCCCCCCCCCCCCCCCCCCCCCCCCCCCCCCCCCCCCCCC",
"CCCCCCCCCCCCCCCCCCCCCCCCCCCCC;ggCCCCCCCCCCCCCCCCCCCCCCCCCCCCCCCC",
"CCCCCCCCCCCCCCCCCCCCCCCCCCCCC;99g;;gCgCCCCCCCCCCCCCCCCCCCCCCCCCC",
"CCCCCCCCCCCCCCCCCCCCCCCCCCCCC;9999g;gCCCCCCCCCCCCCCCCCCCCCCCCCCC",
"CCCCCCCCCCCCCCCCCCCCCtCCCCCCCCC999;9;;gCCCCCCCCCCCCCCCCCCCCCCCCC",
"CCCCCCCCCCCCCCCCCCCCCtCCCCCCCCOO;9g9;99CCCtCCCCCCCCCCCCCCCCCCCCC",
"CCCCCCCCCCCCCCCCCCCCCtCCCCCCCO;;9gmg99;CCCtCCCCCCCCCCCCCCCCCCCCC",
"CCCCCCCCCCCCCCCCCCCCCtCCCCCCCOO9;OgOgCCCCCtCCCCCCCCCCCCCCCCCCCCC",
"CCCCCCCCCCCCCCCCCCCCCCCCCCCCCO;;OO9OCCCCCCtCCCCCCCCCCCCCCCCCCCCC",
"CCCCCCCCCCCCCCCCCCCCCCCCCCCCOOO;O+OOCCCtCCCCCCCCCCCCCCCCCCCCCCCC",
"CCCCCCCCCCCCCCCCCCCCCbCCCCCCO;;9OOOCCCCtCCCCCCCCCCCCCCCCCCCCCCCC",
"CCCCCCCCCCCCCCCCCCCCCzCCCC;9;OO>999CCCCtCCtCCCCCCCCCCCCCCCCCCCCC",
"CCCCCCCCCCCCCCCCCCtCCzCCCOO;9;OO;;fCCCCtCCtCCCCCCCCCCCCCCCCCCCCC",
"CCCCCCCCCCCCCCCCCCtCCzCC;ggg;9;;;O;gCCCtCCtCCCCCCCCCCCCCCCCCCCCC",
"CCCCCCCCCCCCCCCCCCCCCzCC9999g;999;99;CCtCCtCCCCCCCCCCCCCCCCCCCCC",
"CCCCCCCCCCCCCCCCCCCCCzCC9999g;ggm;mg; CtCCtCCCCCCCCCCCCCCCCCCCCC",
"CCCCCCCCCCCCCCCCCCtCCzCC9999;;sgg:gd;# tCCyCCCCCCCCCCCCCCCCCCCCC",
"CCCCCCCCCCCCCCCCCCtCCkCCC;;O;9ggg;gg;##CCCtCCCCCCCCCCCCCCCCCCCCC",
"CCCCCCCCCCCCCCCCCCtCCzCC-99=;999g;g9;##CCCtCCCCCCCCCCCCCCCCCCCCC",
"CCCCCCCCCCCCCCCCCCtCCzCC99g;O;99g;g9;  zCCtCCCCCCCCCCCCCCCCCCCCC",
"CCCCCCCCCCCCCCCCCCtCCzCC99g;+O;;;;;;###zCCtCCCCCCCCCCCCCCCCCCCCC",
"CCCCCCCCCCCCCCCCCCtCCzCC999;;O;;9g8  ##zCCtCCCCCCCCCCCCCCCCCCCCC",
"CCCCCCCCCCCCCCCCCCrCCzCCC9;79;;;;ww## #zCCtCCCCCCCCCCCCCCCCCCCCC",
"CCCCCCCCCCCCCCCCCCtCCzCCC;9999gj0.  ## zCCtCCCCCCCCCCCCCCCCCCCCC",
"CCCCCCCCCCCCCCCCCCtCCzCCC;99999jhjee ##zCCtCCCCCCCCCCCCCCCCCCCCC",
"CCCCCCCCCCCCCCCCCCtCCzCCC%;;999jjjee #qzCCtCCCCCCCCCCCCCCCCCCCCC",
"CCCCCCCCCCCCCCCCCCtCCzCCC%%%;;;jjee1CCqzCCtCCCCCCCCCCCCCCCCCCCCC",
"CCCCCCCCCCCCCCCCCCtCCzCCC%$%%1;1Xooo;q3zCCtCCCCCCCCCCCCCCCCCCCCC",
"CCCCCCCCCCCCCCCCCCuCCzCC%%%%1111oqqoq5CzCCtCCCCCCCCCCCCCCCCCCCCC",
"CCCCCCCCCCCCCCCCCCuCCCNC%%%%11111npqq4CzCCtCCCCCCCCCCCCCCCCCCCCC",
"CCCCCCCCCCCCCCCCCCtCCCNC%%111111133q11CzCCtCCCCCCCCCCCCCCCCCCCCC",
"CCCCCCCCCCCCCCCCCCCtCCNC%&%111111np111CzCCtCCCCCCCCCCCCCCCCCCCCC",
"CCCCCCCCCCCCCCCCCCCtCCNC%%%1,1121ni111ClCCtCCCCCCCCCCCCCCCCCCCCC",
"CCCCCCCCCCCCCCCCCCCtCCNC%%%1<11%1np11CNzCttCCCCCCCCCCCCCCCCCCCCC",
"CCCCCCCCCCCCCCCCCCCttCNCC%%%111%1np11CNCCttCCCCCCCCCCCCCCCCCCCCC",
"CCCCCCCCCCCCCCCCCCCttCNCCC%%1%%%@np1CCNCCttCCCCCCCCCCCCCCCCCCCCC",
"CCCCCCCCCCCCCCCCCCCCtzNCCCCg%%%CCnp@CCNCztyCCCCCCCCCCCCCCCCCCCCC",
"CCCCCCCCCCCCCCCCCCCCzzNCCCC*66CCCnp@CCNCzztCCCCCCCCCCCCCCCCCCCCC",
"CCCCCCCCCCCCCCCCCCCCzzNCCCC***CCCnp CCNCbvCCCCCCCCCCCCCCCCCCCCCC",
"CCCCCCCCCCCCCCCCCCCCzzNCCCC**CCCCnp CCNzzzCCCCCCCCCCCCCCCCCCCCCC",
"CCCCCCCCCCCCCCCCCCCCCzNCCCC**CCCCnp CCNzzzCCCCCCCCCCCCCCCCCCCCCC",
"CCCCCCCCCCCCCCCCCCCCCzNNCCC**CCCCnp CCNzzzCCCCCCCCCCCCCCCCCCCCCC",
"CCCCCCCCCCCCCCCCCCCCCzxNCCCCCCCCCnpCCCNzzzCCCCCCCCCCCCCCCCCCCCCC",
"CCCCCCCCCCCCCCCCCCCCCCzNNCCCCCCCCnpCCNNzzCCCCCCCCCCCCCCCCCCCCCCC",
"CCCCCCCCCCCCCCCCCCCCCCzNNCCCCCCCCnaCCNNczCCCCCCCCCCCCCCCCCCCCCCC",
"CCCCCCCCCCCCCCCCCCCCCCCVNNCCCCCCCnpCCNNzzCCCCCCCCCCCCCCCCCCCCCCC",
"CCCCCCCCCCCCCCCCCCCCCCCzNNNCCCCCCnpCNNNkzCCCCCCCCCCCCCCCCCCCCCCC",
"CCCCCCCCCCCCCCCCCCCCCCCzNNNNCCCCCnCCNNNzCCCCCCCCCCCCCCCCCCCCCCCC",
"CCCCCCCCCCCCCCCCCCCCCCCCNMNNNCCCCnCNNNNzCCCCCCCCCCCCCCCCCCCCCCCC",
"CCCCCCCCCCCCCCCCCCCCCCCCCNNNNNCCCCNNNNtCCCCCCCCCCCCCCCCCCCCCCCCC",
"CCCCCCCCCCCCCCCCCCCCCCCCCCNNNNNNNNNNNBCCCCCCCCCCCCCCCCCCCCCCCCCC",
"CCCCCCCCCCCCCCCCCCCCCCCCCCCNNNNNNNNNNCCCCCCCCCCCCCCCCCCCCCCCCCCC",
"CCCCCCCCCCCCCCCCCCCCCCCCCCCCNNNNNNNNCCCCCCCCCCCCCCCCCCCCCCCCCCCC",
"CCCCCCCCCCCCCCCCCCCCCCCCCCCCCNNNNNNCCCCCCCCCCCCCCCCCCCCCCCCCCCCC",
"CCCCCCCCCCCCCCCCCCCCCCCCCCCCCCCCCCCCCCCCCCCCCCCCCCCCCCCCCCCCCCCC",
"CCCCCCCCCCCCCCCCCCCCCCCCCCCCCCCCCCCCCCCCCCCCCCCCCCCCCCCCCCCCCCCC",
"CCCCCCCCCCCCCCCCCCCCCCCCCCCCCCCCCCCCCCCCCCCCCCCCCCCCCCCCCCCCCCCC",
"CCCCCCCCCCCCCCCCCCCCCCCCCCCCCCCCCCCCCCCCCCCCCCCCCCCCCCCCCCCCCCCC",
"CCCCCCCCCCCCCCCCCCCCCCCCCCCCCCCCCCCCCCCCCCCCCCCCCCCCCCCCCCCCCCCC",
"CCCCCCCCCCCCCCCCCCCCCCCCCCCCCCCCCCCCCCCCCCCCCCCCCCCCCCCCCCCCCCCC",
"CCCCCCCCCCCCCCCCCCCCCCCCCCCCCCCCCCCCCCCCCCCCCCCCCCCCCCCCCCCCCCCC",
"CCCCCCCCCCCCCCCCCCCCCCCCCCCCCCCCCCCCCCCCCCCCCCCCCCCCCCCCCCCCCCCC"
};
