/* XPM */
static char *fa6b9fe355ca498da143f2f0e7cb7f85pvQtoPWc4XCT1BiR[] = {
/* columns rows colors chars-per-pixel */
"20 26 154 2 ",
"   c None",
".  c #39342D",
"X  c #572C15",
"o  c #562F19",
"O  c #5A3019",
"+  c #65351E",
"@  c #6C3419",
"#  c #723217",
"$  c #793615",
"%  c #7F3817",
"&  c #73391E",
"*  c #7C391B",
"=  c #4F3B2A",
"-  c #513423",
";  c #55392A",
":  c #4D3D30",
">  c #653922",
",  c #733A20",
"<  c #7C3E22",
"1  c #53473D",
"2  c #7F4224",
"3  c #6C503E",
"4  c #3A4447",
"5  c #366365",
"6  c #3A6B6B",
"7  c #3A7373",
"8  c #3E7879",
"9  c #4E4E44",
"0  c #4D4F4C",
"q  c #504B42",
"w  c #4E5146",
"e  c #4C544B",
"r  c #4B5A53",
"t  c #644F40",
"y  c #775540",
"u  c #745D4E",
"i  c #775D50",
"p  c #51605E",
"a  c #71675D",
"s  c #4E6B6B",
"d  c #566563",
"f  c #516A6D",
"g  c #406E70",
"h  c #4C6C71",
"j  c #4D7274",
"k  c #4C7779",
"l  c #4C7A7B",
"z  c #547575",
"x  c #656762",
"c  c #616A65",
"v  c #6D6A61",
"b  c #883B16",
"n  c #873E1A",
"m  c #893E1A",
"M  c #903F19",
"N  c #8E411D",
"B  c #91431F",
"V  c #854224",
"C  c #8B4424",
"Z  c #914523",
"A  c #944927",
"S  c #9F4B24",
"D  c #954B2A",
"F  c #9D4F2C",
"G  c #94502E",
"H  c #83553E",
"J  c #955030",
"K  c #9B5233",
"L  c #9E5B37",
"P  c #9C5A3A",
"I  c #A54E24",
"U  c #A94F25",
"Y  c #AB5227",
"T  c #A4532E",
"R  c #AD532A",
"E  c #B4592D",
"W  c #B85A2F",
"Q  c #A45533",
"!  c #AD5630",
"~  c #A45835",
"^  c #AC5B34",
"/  c #B45A32",
"(  c #BA5D33",
")  c #B25F3C",
"_  c #BC6035",
"`  c #B6613D",
"'  c #BB643E",
"]  c #C26035",
"[  c #C4673D",
"{  c #C4693D",
"}  c #8F5E48",
"|  c #985F45",
" . c #896B55",
".. c #B46442",
"X. c #BC6541",
"o. c #B16845",
"O. c #BE6943",
"+. c #BF704A",
"@. c #C26741",
"#. c #C36B44",
"$. c #CB6D45",
"%. c #C16D49",
"&. c #CB6F48",
"*. c #D16F45",
"=. c #CE7046",
"-. c #C2704A",
";. c #D27145",
":. c #D97345",
">. c #D07048",
",. c #4D7F82",
"<. c #3F8686",
"1. c #3F8788",
"2. c #3F8A8B",
"3. c #418485",
"4. c #418789",
"5. c #438A8C",
"6. c #498B8A",
"7. c #598083",
"8. c #5B838A",
"9. c #5B8D92",
"0. c #459496",
"q. c #4C9698",
"w. c #4A9B9A",
"e. c #569397",
"r. c #529698",
"t. c #5B979C",
"y. c #60989D",
"u. c #519DA2",
"i. c #5D9FA5",
"p. c #679EA5",
"a. c #689FA4",
"s. c #58A2A6",
"d. c #57A5A8",
"f. c #5DA5AA",
"g. c #5CAAAE",
"h. c #55AAAB",
"j. c #4BB0AF",
"k. c #5DACB1",
"l. c #56B1B2",
"z. c #5BB3B5",
"x. c #5CB5BA",
"c. c #5ABABD",
"v. c #54BCBC",
"b. c #65A1A3",
"n. c #66A9A7",
"m. c #63A4AB",
"M. c #62A8AE",
"N. c #62AEB4",
"B. c #61B2B7",
"V. c #62B5B9",
"C. c #61B3B9",
"Z. c #61BBBE",
"A. c #5CBEC3",
"S. c #5CC1C5",
/* pixels */
"            6 5.v.z.c.j.3.              ",
"        8 w.z.m.g.8.e.g.M.l.4.          ",
"      r.c.m.9.e = X o : s t.N.x.        ",
"    6.m.y.r O % I / Q M % - z p.s.      ",
"    h.m.1 N / ' ( #.../ $.R @ d V.0.    ",
"  6.M.p # ] =.' ( $.X./ &.&.I > 7.g.3.  ",
"  d.i.; F _ &.' ( ;.X./ $.#./ A 0 B.q.  ",
"5 f.f & ) _ $.X.( ;.X./ #.#./ ` - 9.u.  ",
"2.S.r T ` _ #...( >.X./ #.#./ #., ,.S.7 ",
"<.m.t R T R / T R ( ! Y / ! U / m c k.7 ",
"2.n.o.$.%.{ #.#.{ #.#.[ #.#.{ -.{  .x.7 ",
"1.b.H B Z Z Z Z Z Z Z B Z Z B Z C a g.7 ",
"4.Z.e I T R / T I / Q I ! Q S / * k c.7 ",
"4.N.9 ^ | _ ;...( ;.@./ #.X./ :.V h x.7 ",
"4.C.w P u / &.' ( =.@./ $.O./ :.V j x.7 ",
"1.V.e ^ H _ #.X.( $.#./ $.O./ :.V j x.7 ",
"4.N.9 ^ H _ #.X.( $.#./ &.O./ ;.V h x.7 ",
"1.Z.e L i / #.X.( $.#.E *.#.E *.V k A.7 ",
"4.M.q ^ } ( %.' ( #.X./ *.#./ &.2 s k.7 ",
"1.A.e / ) ( #.' ( #.../ &.O./ #.< l A.7 ",
"4.b.y R ! R / ! R / ! R ( ! R / Z v g.7 ",
"2.n.o.#.+.@.#.O.@.#.%.@.#.%.O.%.#. .c.7 ",
"4.a.3 b m b m m b m m b m n b m $ x k.7 ",
"1.S.e E ( / ' / R [ ` R [ ' R ' < l S.7 ",
"<.M.q _ ' ] &.` ( ;.#.W $.O./ $.2 f z.7 ",
"g h . D G D ~ J D ~ K A ~ K C ~ + 4 k   "
};
