/* XPM */
static char *_995d9e694a348cc900a13858e885759qBN3gBRKmDc4pD75[] = {
/* columns rows colors chars-per-pixel */
"33 26 253 2 ",
"   c black",
".  c #010000",
"X  c #040400",
"o  c #010100",
"O  c #433D00",
"+  c #020100",
"@  c black",
"#  c black",
"$  c black",
"%  c black",
"&  c black",
"*  c black",
"=  c black",
"-  c black",
";  c black",
":  c black",
">  c black",
",  c black",
"<  c #020200",
"1  c #2F2A00",
"2  c #2C2800",
"3  c black",
"4  c black",
"5  c black",
"6  c black",
"7  c black",
"8  c black",
"9  c #9C8700",
"0  c #817100",
"q  c black",
"w  c black",
"e  c #080700",
"r  c #2C2700",
"t  c #2A2500",
"y  c #010100",
"u  c black",
"i  c black",
"p  c black",
"a  c black",
"s  c #060500",
"d  c #B09800",
"f  c #988300",
"g  c black",
"h  c black",
"j  c #080800",
"k  c #242000",
"l  c #242100",
"z  c #040300",
"x  c black",
"c  c black",
"v  c black",
"b  c #0C0B00",
"n  c #B49C00",
"m  c #A28C00",
"M  c #040300",
"N  c black",
"B  c black",
"V  c black",
"C  c black",
"Z  c black",
"A  c black",
"S  c black",
"D  c black",
"F  c black",
"G  c #0C0B00",
"H  c #1B1800",
"J  c #1A1700",
"K  c #040400",
"L  c black",
"P  c black",
"I  c #121000",
"U  c #B89F00",
"Y  c #A48E00",
"T  c #070600",
"R  c black",
"E  c black",
"W  c black",
"Q  c black",
"!  c black",
"~  c black",
"^  c black",
"/  c #121000",
"(  c #C5AA00",
")  c #AE9600",
"_  c #070600",
"`  c black",
"'  c #110F00",
"]  c #352F00",
"[  c #2E2800",
"{  c #050400",
"}  c black",
"|  c black",
" . c black",
".. c black",
"X. c black",
"o. c #0C0B00",
"O. c None",
"+. c #A99100",
"@. c #040300",
"#. c black",
"$. c black",
"%. c #0B0A00",
"&. c #3C3500",
"*. c #3A3300",
"=. c #040300",
"-. c black",
";. c #050400",
":. c #B69D00",
">. c #9C8700",
",. c black",
"<. c black",
"1. c black",
"2. c #080700",
"3. c #413900",
"4. c #3D3600",
"5. c #010100",
"6. c black",
"7. c black",
"8. c #A08A00",
"9. c #837300",
"0. c black",
"q. c black",
"w. c black",
"e. c black",
"r. c #020200",
"t. c #4B4200",
"y. c #443D00",
"u. c black",
"i. c black",
"p. c black",
"a. c #342D00",
"s. c #332D00",
"d. c #342E00",
"f. c #F1CD00",
"g. c #EDCA00",
"h. c #2F2800",
"j. c #2E2800",
"k. c #302A00",
"l. c #B49B00",
"z. c #FFD900",
"x. c #FED600",
"c. c #9D8700",
"v. c #2C2700",
"b. c #2F2900",
"n. c #EECA00",
"m. c #EBC700",
"M. c #F7D000",
"N. c #FDD500",
"B. c #F5CF00",
"V. c #EFCB00",
"C. c #2E2900",
"Z. c #C5A900",
"A. c #FAD200",
"S. c #F8D000",
"D. c #F8D100",
"F. c #FBD300",
"G. c #AE9600",
"H. c #282400",
"J. c #E9C600",
"K. c #EAC400",
"L. c #E0BA00",
"P. c #E0BB00",
"I. c #EDC700",
"U. c #F4CF00",
"Y. c #0C0B00",
"T. c #C4A800",
"R. c #E9C300",
"E. c #E1BC00",
"W. c #ECC600",
"Q. c #F9D100",
"!. c #FAD300",
"~. c #FED500",
"^. c #FFDA00",
"/. c #AE9500",
"(. c #040300",
"). c #0A0A00",
"_. c #C3A700",
"`. c #FFD800",
"'. c #F0CA00",
"]. c #F9D200",
"[. c #EEC700",
"{. c #AD9400",
"}. c #020200",
"|. c #262300",
" X c #C9AD00",
".X c gold",
"XX c #E8C200",
"oX c #F3CC00",
"OX c #F0C900",
"+X c #FDD600",
"@X c #B69C00",
"#X c #1F1C00",
"$X c #DFBE00",
"%X c #FCD500",
"&X c #F1CB00",
"*X c #FBD400",
"=X c #FBD800",
"-X c #FFE100",
";X c #FEDC00",
":X c #F2CD00",
">X c #121000",
",X c #D0B200",
"<X c #FCD400",
"1X c #E5C000",
"2X c #DEB900",
"3X c #FEDB00",
"4X c #FFE300",
"5X c #FEDE00",
"6X c #B89D00",
"7X c #070600",
"8X c #CFB100",
"9X c #FEDD00",
"0X c #B79D00",
"qX c #F0CC00",
"wX c #F9D300",
"eX c #E7C100",
"rX c #DFBA00",
"tX c #F2CB00",
"yX c #FDDB00",
"uX c #FFE200",
"iX c #F1CC00",
"pX c #3C3500",
"aX c #F6CF00",
"sX c #E3BE00",
"dX c #F4CD00",
"fX c #FDDA00",
"gX c #FEE000",
"hX c #FDD700",
"jX c #BDA200",
"kX c #362F00",
"lX c #090800",
"zX c #C2A700",
"xX c #AC9300",
"cX c #010100",
"vX c #C3A800",
"bX c #F5CE00",
"nX c #FBD900",
"mX c #FDD800",
"MX c #F8D200",
"NX c #473E00",
"BX c #CBAE00",
"VX c #423900",
"CX c #F6D000",
"ZX c #FAD400",
"AX c #463E00",
"SX c #483F00",
"DX c #BCA200",
"FX c #A89100",
"GX c #453C00",
"HX c #F7D100",
"JX c #594E00",
"KX c #584D00",
"LX c white",
/* pixels */
"                      . @ # $ $ $ $ $ # %                         ",
"                      X & * = = = = = * -         o               ",
"              ; : > , < 1 a.s.s.s.s.s.d.2 3 , > 4 o               ",
"              5 6 7 8 8 9 f.g.g.g.g.g.f.0 8 8 7 q o               ",
"          ; w e r h.j.k.l.z.x.x.x.x.x.z.c.v.h.b.t y u i           ",
"          p a s d n.m.m.M.x.N.N.N.N.N.x.B.m.m.V.f = g i           ",
"      h u j k C.Z.z.x.x.A.S.D.D.D.D.D.S.F.x.x.z.G.H.l z x i       ",
"      c v b n J.M.N.N.N.K.L.P.P.P.P.P.L.I.x.N.N.U.J.m M N B       ",
"      V C Y.T.z.N.N.A.D.R.E.E.E.E.E.E.E.W.Q.!.N.~.^./.(.Z A       ",
"      c S )._.`.N.N.R.P.'.A.].].].].].A.[.P.W.N.N.z.{.}.D 5       ",
"  h F G H |. X.X!.Q.XXP.oXx.N.N.N.N.N.x.OXP.W.+X+X`.@X#XJ K L i   ",
"  L P I U $XB.%XXXE.&X].*XN.N.N.N.N.N.N.F.Q.=X-X;XN.:X$XY T N p   ",
"  R E >X,Xz.~.<X1X2XoXx.N.N.N.N.N.N.N.N.N.N.3X4X5XN.x.^.6X7XW Q   ",
"  R ! >X8X.XN.<X1X2XoX~.N.N.N.N.N.N.N.N.N.N.3X4X9XN.N.`.0X7X~ Q   ",
"  R ! >X8X.XN.<X1X2XoX~.N.N.N.N.N.N.N.N.N.N.3X4X9XN.N.`.0X7X~ Q   ",
"  R ! >X8X`.N.<X1X2XoXx.N.N.N.N.N.N.N.N.N.N.3X4X9XN.N.z.0X7XW Q   ",
"  F ^ / ( qXwX<XeXrXtX*X<XN.N.N.N.N.N.N.N.N.yXuX9XN.D.iX) _ ` Q   ",
"  5 @ ' ] pX8X.XD.aXR.sXdXN.N.N.N.N.N.N.fXgX;XhX+X`.jXkX[ { : ;   ",
"      } D lXzX`.N.N.XX2XtX+XN.N.N.N.N.N.yX4X;XN.N.z.xXcXD }       ",
"      |  .Y.vX`.N.N.S.bXnXgXgXgXgXgXgXgX;XmXhXN.N.z.{.(...A       ",
"      A X.o.O.MXF.N.N.N.5X4X4X4X4X4X4X4X;XN.N.N.!.MX+.@.#.A       ",
"      ; $.%.&.NXBX`.N.N.hXmXmXmXmXmXmXmXhXN.N.`.0XVX*.=.$.;       ",
"          | -.;.:.!.CXCX!.N.N.N.N.N.N.N.!.CXCXZX>.,.<.O           ",
"          h 1.2.3.NXAXSXDX`.N.N.N.N.N.`.FXGXNXNX4.5.6.i           ",
"              } a ,.7.7.8.*XHXHXHXHXHXZX9.0.7.q.& o               ",
"              h $ w.e.r.t.JXKXKXKXKXKXJXy.u.i.w.p.+ .             "
};
