/* XPM */
static char *acidspit1713779799[] = {
/* columns rows colors chars-per-pixel */
"48 48 37 1 ",
"  c None",
". c #006F00",
"X c #158912",
"o c #239B1F",
"O c #2A8929",
"+ c #3A9E37",
"@ c #3FAC3B",
"# c #40A33D",
"$ c #4B9E49",
"% c #45AC41",
"& c #48AE45",
"* c #4EB54A",
"= c #58AF55",
"- c #61BA5D",
"; c #65AF63",
": c #63BC60",
"> c #70BC6C",
", c #68C164",
"< c #6BC767",
"1 c #70C76C",
"2 c #77C573",
"3 c #7CCB78",
"4 c #7FCF7B",
"5 c #83C77F",
"6 c #88CE84",
"7 c #8CD388",
"8 c #8FD68B",
"9 c #99D995",
"0 c #9CDB98",
"q c #A6DFA2",
"w c #A7E1A3",
"e c #ADE3A9",
"r c #AFE4AB",
"t c #B5E7B1",
"y c #B6E8B2",
"u c #BAE9B6",
"i c #CFF3CB",
/* pixels */
"                                                ",
"                                                ",
"                                                ",
"                                                ",
"                                                ",
"                                                ",
"                                                ",
"                                                ",
"                                                ",
"                          ....                  ",
"                        .......                 ",
"                 .....  ..OOO..                 ",
"                ....OO..XX%O$O..                ",
"               .O$$O$$.XXXoo++O....             ",
"             ...O$$;$$.ooo%%%++X...             ",
"            .OO..$;$$O%o%%-%ooXX...             ",
"           ..OO..==>5:,*,,3-ooXX...             ",
"           ..++=+%%%3,1<<48,%ooXXOO.            ",
"           .XX+-%oo-734<<8841@oo%$$O..          ",
"          .XXoo----33ewwwr44<@o%%+;$...         ",
"         ..X%%,,33338riiwwr4<<o%%+==...         ",
"         .O++O,,,,88triiiirrw<*ooX==...         ",
"         .O+X#**o,8twwwiiiiiw<**o+++X..         ",
"         .O+X*<<<%8twwiiiiiiw<48-%%oo..         ",
"         .O+X&<<48triiiiiiiiw<80-%ooo..         ",
"        ..OO+X**48ttiiiiiiiir480%oo%+....       ",
"        ...O+X**,88riiiiiirtu8q8%oo%+OO..       ",
"        ....Xo%%*38ryiiiiirtu0qq%%%+OOOo        ",
"         .OOOo%%%,34<yiiiwrt0q00%%+=$OOo        ",
"         .OOOo%%%-248riiiww<479-o-=$OO.         ",
"          .OO+Xo%-28q04ww<<<,3-o%-%O..          ",
"           .O++XXo%%804884,*,72---O...          ",
"            .O+++-%o%3000093%%%->$....          ",
"            ..O++>=%-%-,376--o%-;$O..           ",
"            ...X+>>+-%ooo%%--%=$$$O.            ",
"             ...O=>=---+X%%X++$$O..o            ",
"              ..OO;$=>>$O...OO.....             ",
"              ...OO..OOOO......                 ",
"               ......OO.......                  ",
"                     .......                    ",
"                                                ",
"                                                ",
"                                                ",
"                                                ",
"                                                ",
"                                                ",
"                                                ",
"                                                "
};
