/* XPM */
static char *dd28a0271a304f638a95cf3c64a382562hImRBw574Rdv8Df[] = {
/* columns rows colors chars-per-pixel */
"40 26 151 2 ",
"   c black",
".  c #040404",
"X  c gray12",
"o  c #282828",
"O  c #2C2C2C",
"+  c #252525",
"@  c gray5",
"#  c #161616",
"$  c #0B0B0B",
"%  c white",
"&  c #090909",
"*  c #181818",
"=  c gray9",
"-  c #070707",
";  c #1E1E1E",
":  c #020202",
">  c #4E4E4E",
",  c #010101",
"<  c #ECECEC",
"1  c #E9E9E9",
"2  c #E4E4E4",
"3  c gray89",
"4  c gray91",
"5  c #E6E6E6",
"6  c #E2E2E2",
"7  c gray85",
"8  c #1B1B1B",
"9  c #070606",
"0  c #0C0602",
"q  c #0E0803",
"w  c #0E0703",
"e  c #0D0703",
"r  c #080604",
"t  c #060606",
"y  c black",
"u  c #1F2021",
"i  c #202223",
"p  c #222325",
"a  c #222324",
"s  c #0A0B0B",
"d  c black",
"f  c #010000",
"g  c #353536",
"h  c #3E3F40",
"j  c #3D3A37",
"k  c #423A33",
"l  c None",
"z  c #423C37",
"x  c #393A39",
"c  c #3C3D3E",
"v  c gray15",
"b  c black",
"n  c #3A3A3B",
"m  c #424243",
"M  c gray6",
"N  c #222222",
"B  c #3E3D3B",
"V  c #353536",
"C  c black",
"Z  c #242526",
"A  c #333435",
"S  c black",
"D  c #252626",
"F  c #333435",
"G  c #242525",
"H  c #313233",
"J  c #242526",
"K  c #323334",
"L  c #333434",
"P  c #242525",
"I  c #313233",
"U  c #222324",
"Y  c #38312D",
"T  c #60310F",
"R  c #73421B",
"E  c #703E17",
"W  c #72411B",
"Q  c #6F3C15",
"!  c #724019",
"~  c #724018",
"^  c #443020",
"/  c #303031",
"(  c black",
")  c #040404",
"_  c #060505",
"`  c #090501",
"'  c #0B0603",
"]  c #0B0602",
"[  c #070503",
"{  c gray2",
"}  c black",
"|  c #494440",
" . c #644831",
".. c #73441F",
"X. c #82481C",
"o. c #844C20",
"O. c #79421A",
"+. c #6A462A",
"@. c #4C3D32",
"#. c #5F3A1F",
"$. c #915221",
"%. c #92501E",
"&. c #91501E",
"*. c #945422",
"=. c #914E1C",
"-. c #935220",
";. c #79451C",
":. c #4B433B",
">. c #3D352F",
",. c #7A3E12",
"<. c #945523",
"1. c #904F1E",
"2. c #935422",
"3. c #8F4D1C",
"4. c #925220",
"5. c #93521F",
"6. c #533925",
"7. c #3F3630",
"8. c #7B3F13",
"9. c #904E1C",
"0. c #854C20",
"q. c #643D1E",
"w. c #423226",
"e. c #7C3F13",
"r. c #965623",
"t. c #633C1E",
"y. c #413226",
"u. c #3E362F",
"i. c #733A11",
"p. c #6D3E19",
"a. c #523823",
"s. c #69350F",
"d. c #522F13",
"f. c #74411A",
"g. c #91511F",
"h. c #523824",
"j. c #3E3630",
"k. c #7A3E13",
"l. c #8A4F20",
"z. c #8E4E1D",
"x. c #955523",
"c. c #915220",
"v. c #90501F",
"b. c #804A20",
"n. c #51351E",
"m. c #3B3027",
"M. c #945423",
"N. c #8C4F20",
"B. c #7A461E",
"V. c #493424",
"C. c white",
/* pixels */
"                                                                                ",
"                                                                                ",
"                                                                                ",
"                                  . X o O + @                                   ",
"                            # $ % y u i p a s d O   &                           ",
"                          * = f g h j k l z x c v %                             ",
"                          - b n |  ...X.o.O.+.@.m M ; :                         ",
"                          > N B #.$.%.&.*.=.-.;.:.V C ,                         ",
"                          < Z >.,.<.1.1.2.3.4.5.6.A S ,                         ",
"                          1 D 7.8.<.1.1.2.9.0.q.w.F S ,                         ",
"                          1 D 7.e.r.&.1.2.9.0.t.y.F S ,                         ",
"                          2 G u.i.p.X.&.2.3.4.5.a.H S ,                         ",
"                          3 G u.s.d.f.&.2.3.4.g.h.H S ,                         ",
"                          4 J j.k.l.z.1.2.3.4.g.h.K S ,                         ",
"                          1 D 7.8.x.1.1.2.3.c.v.h.F S ,                         ",
"                          5 J j.8.<.1.1.2.9.b.n.m.L S ,                         ",
"                          6 P >.e.x.&.&.M.=.N.B.V.I S ,                         ",
"                          7 U Y T R E E W Q ! ~ ^ / ( ,                         ",
"                          # ) _ ` ' ] ] ' ] ] ] [ { }                           ",
"                          8 . 9 0 q w w q e q q r t                             ",
"                                                                                ",
"                                                                                ",
"                                                                                ",
"                                                                                ",
"                                                                                ",
"                                                                                "
};
