/* XPM */
static char *_39b0e3f3c87416bf1a8d63379572e664zzygLh8OZy4L3wn[] = {
/* columns rows colors chars-per-pixel */
"64 64 40 1 ",
"  c None",
". c #11131C",
"X c #13121C",
"o c #12131C",
"O c #13131C",
"+ c #13131E",
"@ c #14131C",
"# c #15131C",
"$ c #14141D",
"% c #15151E",
"& c #27130F",
"* c #293757",
"= c #2B3757",
"- c #2B3957",
"; c #8E5052",
": c #8C5252",
"> c #8D5252",
", c #8E5252",
"< c #CA897E",
"1 c #CB8A7E",
"2 c #CA8B7E",
"3 c #CC8B7C",
"4 c #CC8B7E",
"5 c #4A6082",
"6 c #6985A0",
"7 c #6B85A0",
"8 c #94ADBF",
"9 c #E7B3A1",
"0 c #E9B5A1",
"q c #E9B5A3",
"w c #E9B7A3",
"e c #F2CDA7",
"r c #F4CDA9",
"t c #F4CFA8",
"y c #F4CEA9",
"u c #F4CFA9",
"i c #F6CFA9",
"p c #F4CFAB",
"a c #94AFC0",
"s c white",
/* pixels */
"                                                                ",
"                                                                ",
"                                                                ",
"                                                                ",
"                                                                ",
"                                                                ",
"                                                                ",
"                                                                ",
"                                                                ",
"                   OOOO           OOO                           ",
"                  OquuO           OqqO                          ",
"                  Ouu,O    OOOOO  OqqO                          ",
"                  Ouu4O   O,444,O O44O                          ",
"                  Oq4O   O,444444OO,4O                          ",
"                  OuqO   O444quu4O Oq,                          ",
"                  OuuO   O44quuuuO Oq4O                         ",
"                  OquO   O,4OOO4OO Oq4O                         ",
"                  OqqO   Oq44&,u&O O4,O                         ",
"                  O4qqO  Oq4qqquu, O,,O                         ",
"                   OquuOO O,q4ss4O $q4O                         ",
"                   O,uuu,O O,qqq<O#qq,O                         ",
"                    O4quq4O$$,,,##4qq,O                         ",
"                     O4qqqqqq4,,44,4,O                          ",
"                      O,<qquuuuu4uq,OO                          ",
"                       OO,4uuuuuuuuuO                           ",
"                        OO,<quuuqqueO                           ",
"                         OOO<4qqqqqO                            ",
"                          OOO,,444,O                            ",
"                          O,,444444O                            ",
"                           O,4qqq4qO                            ",
"                           O,,qqqqqO                            ",
"                           O,,4quuuO                            ",
"                            O,,quuuO                            ",
"                            O<,qu4qO                            ",
"                            O=6aaaa5O                           ",
"                            O6aaaaa6$                           ",
"                           O=55aaaa6u$                          ",
"                           O4--5886uuqO                         ",
"                           Oquu===4uuu#                         ",
"                           #uuu4OO,quu4O                        ",
"                          O4uuu,O O,4qqO                        ",
"                          O4uu4O  O,,q9O                        ",
"                          O<qq,O  OO,,O                         ",
"                          OO44O  O,,,<O                         ",
"                          OO,,O  O,,<O                          ",
"                          O,,,O #,,<O                           ",
"                          O,,,OO4,4O                            ",
"                          O,,O O<44O                            ",
"                          O,,O  O<4O                            ",
"                         OO,O    Oq$                            ",
"                         OO,O    O99O                           ",
"                         O,,O     OOO                           ",
"                         O,4O                                   ",
"                         O<<O                                   ",
"                         OOO                                    ",
"                                                                ",
"                                                                ",
"                                                                ",
"                                                                ",
"                                                                ",
"                                                                ",
"                                                                ",
"                                                                ",
"                                                                "
};
