/* XPM */
static char *tile1241713779417[] = {
/* columns rows colors chars-per-pixel */
"64 64 3 1 ",
"  c #133B07",
". c #1B4B0B",
"X c #235B13",
/* pixels */
"XXXXXXXXXXXXXXXXXXX.............XXXXXXXXXXXXXXXXXX.........XXXXX",
"XXXXXXXXXXXXXXXXXXX................XXXXXXXXXXXXXX.........XXXXXX",
"XXXXXXXXXXXXXXXXX.....................XXXXXXXXXX......XXXX....XX",
"XXXXXXXXXXXXXXXX...............................................X",
"XXXXXXXXXXXXXXXX...............................................X",
"XXXXXXXXXXXXXX......................    ......................XX",
"XXXXXXXXXXXXX....XX.....   ........     XXXX.................XXX",
"XXXXXXXXXXXXX...XXXXX.      .....    XXXXXXXXXX............XXXXX",
"X...XXXXXXXXX...XXXXXX      ....    XXXXXXXXX..............XXXXX",
".....XXXX........XXXXX     ....    XXXXXXXXX..............XXXXXX",
".........        .XXX       ..  ...XXXXXX.........  .......XXXXX",
"........          ..        . .....XXXXXX........       ...XXXXX",
" .......          XXXXXXXX . .......XXXXX........          XXXXX",
"X........       XXXXXXXXXXX. .......XXXXXX......            XXXX",
"XX........XX...XXXXXXXXXXXXX. .....XXXXX.......              ...",
".........XXXXXXXXXXXXXXXXXXX......XXXXX........    ..         ..",
".........XXXXXXXXXXX.....XX.......XXXX..............XX        ..",
".........XXXXXXXXX................XXXX.............XXXXX     ...",
"..........XXXXXXX.................XXXX.............XXXXXXX  ....",
"..........XXXXXXX.................XXXXX............XXXXXXXXX....",
"..........XXXXXXX.   ..............XXXX.............XXXXXXXXX...",
"...........XX.XX....................XX...............XXXXXXXX...",
".XXXX................................................XXXXXXX....",
"..XXXXXX.........................................XX...XXXXX.....",
"......XXXXX ..   ..............................XXXXX...XXXXX..XX",
".............        .............XXXXXX......XXXXXX....XXXXXXXX",
".............         ...........XXXXXX...  ..XXXXX......XXXXXXX",
"X............                   XXXX.......  ..XXX........XXXXXX",
"XXXXX.........                  X..... ..... ............XXXXXXX",
"XXX...............             .....  ..................XXXXXXXX",
"...................          ......  ..................XXXXXXXXX",
"....................    .........XX  ......   ........XXXXXXXXXX",
"............XXX.................XXXX ....      ...............XX",
"...........XXXXX...............XXXXX .....       ...............",
"...........XXXXX......  ......XXXXX.......        ..............",
"XXXXXXXXX.XXXXXXX  ..    .....XXXXXXXXX..         ..............",
"XXXXXXXXXXXXXXXXXX       .....XXXXXXXXXX          ........XXX...",
"XXXXX....XXXXXXXXX      .......XXXXXXXXXX        ........XXXXXXX",
"XX...... XXXXXXXX      ..........XXXXXXXX       .XXXXXXXXXXXXXX.",
".......   XXXXXX      ..............XXXX      XXXXXXXXXXXX......",
".......    XXX       .............XXXXXX     XXXXXXXXXXXXX......",
"......XX  XXXXX..................XXXXXX     XXXXXXXXXXXXXX......",
"...XXXXXX........................XXXXXX     XXXXXX.....XX.......",
".XXX..............................XXXX.....XXXXX..............XX",
".XX.........................XXXXX..........XXXX.............XXXX",
"..............................XXX...........XX............XX....",
"...............................XXX........XXX...................",
"................................XX......XXXXXX..................",
"..................................XXXXXXXXXXXX....   ...........",
"XXXXXXXXX..................   ...XXXXXXXXXXXX....     .........X",
"XXXXXXXXXXXXXX...........      ..XXXXXXXXXX......     ........XX",
"XXXXXXXXXXXXXXX...........     ...XXXXXXX.........     ....XXXXX",
"XXXXXXXXXXXXXXX...XXXXX...    .....................    .....XXXX",
"XXXXXXXXXXXXXXX..XXXXXXX.    ......................    ........X",
"XXXXXXXXXXXXXXXX XXXXXXX      ................. XX.    .........",
"XXXXXX....XXXXXX  XXXXX        ......XX....... XXXX.  ..........",
"XXXX.......XXXX                .....XXXX...... XXXX.............",
"XXX..........                 .....XXXXX...... XXXX.............",
"XX............       ..............XXXX.XXX..   XX..............",
"XX.................................XXXXXXXXX     XXXXXXXXXXXXXXX",
"XXX................................XXXXXXXXX    XXXXXXXXXXXXXXXX",
"XXXXXX..............................XXXXXXX    XXXXXXXXXXXXXXXXX",
"XXXXXX...............................XXXX..  .XXXXXXXXXXXXXXXXXX",
"XXXXXXX.......................................XXXXXXXXXXXXXXXXXX"
};
