/* XPM */
static char *result[] = {
/* columns rows colors chars-per-pixel */
"64 64 33 1 ",
"  c #7B3323",
". c #833A27",
"X c #853B28",
"o c #863C28",
"O c #863D29",
"+ c #873D29",
"@ c #863D2A",
"# c #873E2A",
"$ c #883E2A",
"% c #893E2A",
"& c #89402B",
"* c #8A402B",
"= c #8B412C",
"- c #8C422C",
"; c #8D422C",
": c #8D432D",
"> c #8E432D",
", c #8F432D",
"< c #8E442E",
"1 c #8F442E",
"2 c #8F452E",
"3 c #8F452F",
"4 c #90452E",
"5 c #91452E",
"6 c #90452F",
"7 c #90462F",
"8 c #91462F",
"9 c #91472F",
"0 c #92462F",
"q c #92472F",
"w c #93472F",
"e c #944931",
"r c #974B33",
/* pixels */
"                                                                ",
" ##oooooo@OoooooOoOOOOOOooooooo$$OOoXXo%$$ooXoo$$oXXoo%=%%%%$$% ",
" o7>->->>33>>>>>17119111,,,,,>1111,,,;,,w,,>,,0,,,-->wwwwwwwwq$ ",
" X-7>***331>>>>1199991,,,,,,111111,,->,,>>>->,,,,6>->1rwwwww>-= ",
" .>73---111->>11997,1,,,,,,,1111111>>>>>>>->;,11619>>7rwwww>-7# ",
" X>77>->-1--->1997,,,,,,,,,,,119>111>>>>>>>>>>161qq>1q11ww>377# ",
" o>7>>>->>-q---73>>,,>,>,;,,>>199>11>>>>>1111>>16q1116611w>777# ",
" o>>>>>>-ww--->73>->88>-75;>>>791>1>88>>1,,111w1qw1>>11>>>w>77# ",
" X>>>>>>-w>>->>771>>>w0ere:>,97>>>88008>,,,,91wrrw1>->>>>>>w77# ",
" X>>>>>>-->>1>>377>>1wr9<<1379>----0001,>,,,79rrr>>>>>11>>>rr7# ",
" o>>>>>>--q>16977>>1ww197<37771>-->,0771,,,77rrr7>>>>1191>rrrr= ",
" O>>>>>>-qq-1q7,,,>,111973277771>->>7711>>7>wrr7>>>>11111rrrrr= ",
" O1>>>>>qq->971,,>>>,11777227779>>-8,11>>7;1>wr>>>>>111wwwrrrr= ",
" O1>>>7>-q-79,1,>>>->,>71>27777297w>,,->1>>1>>8->>>>>11wwwqrrr= ",
" o1>>>797r33711,,,>>>1q1>>17777721>>>---;;1>>>>>->>>1111w--rrr= ",
" O1>>999773772,,,,7,,7>1>>1,7777;>1-----5,>>>>>>>--;,11>--7799# ",
" %1>w9977377222,,92772;>1>>1,77;>>5;*-;540,>>--,,*;>>611-77779$ ",
" %www999377222222222222>>>>>1,>>>w55-,5554,,--,,,;>>>>67777777$ ",
" %wwrr971>72222222;;2222;>>>>>>ww00>,0055;->-,,,,,7>>27r777777# ",
" $wrrrr11>>722222;-;;2223-11>>>w00>>,,ww>>>*-1,,,7777eerr77777# ",
" =rrrrw11>>>7<<<------<339111-w08>>>>16611>-*-00,,7777rrrrrr73# ",
" =99rrw111>>333<------379979>>>00,,>>1611>>1>440,,,77qrrrrrrrr= ",
" O119rrw11-<33<**--*-37777>11>1101>,11>;;>11ww448>11799rrrr779= ",
" O1119rrw-<33<<******7977>>111,,1,,>6>4-;79www8488,,9911ww3799$ ",
" O1166rr993773<****q3777>>>>;,,,,111-544-7erwww800>99111w11999# ",
" o116ww9999777-***--7733>>>-;10,,,9>-55455er16ww00w71111w11199$ ",
" o>16666999977>**->>72233>---5,,,77>ww000>1qq666www1>>111w1199$ ",
" o166666699977<*-;>7222<<<----;,>-2rwww0,61>1q666001>>>111w779= ",
" o16611667722<::;;;122<<<<<----;---7r00>111>11q61,08>711117777# ",
" %>666ww99<2<::4;;;112<<<<<--;;;;->17ee,1>>11117,,881777999777@ ",
" %w>qwwrre<<::<-;>>>>2<e<<<<>>>;;>>>7ee,>>>,11,330011377999733@ ",
" %wrrrrrre<::<22;>1;<2<<--<22>;;>>>2ee1,>>,;,,,377e73379999773O ",
" $rrrrrrrre::2777>><<<<-4--22>;;>>2eee1,11>,,111777e3799999977@ ",
" =rrrrrrrr<:<37227<<<<---4>>>>>,00eee0,11>11116677737799999977# ",
" =rrrrrr97::<<<;;<:<<<--->8>>>1,,0ee0>111191116qq9777779991>79# ",
" =rrrrr9>>3:13>>>-1<<<<->>8>>>1110ee>>>11>19119q97777773r1>>17# ",
" =rwwr91>>>11->>----<<22,08w>>>6w0e11>>>>>>1999r99r3773r--ww>># ",
" =wwww11>>--1--------e22e7188->w00,,1>>>>>>>>9qrrrrr33r-->>ww>o ",
" $qwwww>>---11------>4ee727,-->,0,,,,1-->>>>1qqqrrrrrr-->>>>ww% ",
" $wwwww1>1>3333>---->>e<<<22->>>,>;,,>>-->>16qqqqrrrrr-->>>>ww= ",
" %wwwwr9119737333----33<<<<<33>>3e;;;>>-->>166qqqrrrrrr-->>wwr= ",
" %wwwwwr9977733333--113<<<:*>3>>0e5;1w->>>11117qrq9rrrrr>>rrrr= ",
" %wwwwwr993373333311--::::**-->1,5;1w>>>7111,7706qq9wwrrr77rrr= ",
" =wwwwr992<3<<3331---**::**--->11>11>>>7991,77,116661wwr7777rr= ",
" =rwwr7722<:<:e<1---****1q*--->11>11>>77979721,116661ww>77777r@ ",
" =rrre7222:::<::*-7**2*-e77----1>>>>>77737>>7,,,666608w>777733@ ",
" =rree2222:<<:::*222q77e77->>--->1>->7993*w1>,,1166,,08773373-. ",
" =rreee22<22<<:::---77ee7->>>wq7-1117711>8ww>>11>1,,,073333r--X ",
" =rrreee<2ee7<2<<<>>1eee1>>>>>8ee>116wwwwwww>11>1,>7e773777q--X ",
" =rrrreeeee77777227773ee13>>>>48ee,161wwwwww1111>37ee77q777qq-X ",
" =rrrrreee7777777227q7eee3>--424e>>1>11wwww661117777eeqqq7rqqqX ",
" =rrrrr977,,777777777q7rr73--q2ee,>>1>1wwww666979>>7errqqrrqqq$ ",
" =rrrr9qq,,6177777777qq99933->3ee91>>1wqrww66997>>>>7r9qrrrr8q% ",
" =rrr99q611666qq7777qqq99777333377711wrrrrrr9qq>>1>>>999qrrrrq$ ",
" =r7999q661111qq727qqqqq9977733>>9997rrrr9qrrq9w>>1>>77977rrrr= ",
" =377999q66119r97r9qq9q9997777,>,1979rrr979qrreew,>w773777rrrr= ",
" @3377991666rrrrrrr9961ee73371,>11>9rrr779999eeee00er777777rrr= ",
" @3377711>w99rrrrr7711,,ee330,,11>1rrre777997ee22eee137377337r= ",
" =3377>>>-->99rrr77>1,,,,ee5000,11999e0077710e2222e>-777377777= ",
" =3333----->777r777>>,,,,e400000,1997>,,07,1,>3<22>-->77733777# ",
" =r3<<3-*--777777999>1,,ee40000,,,99,>>>>>1>---:<----->773<377# ",
" =rr<<r<**<37777777111155ee5000,,777,>>>>->---*:<**----73<<<->= ",
" =======OOOO@#==##oo%%%%$+&=%$$ooO##@ooXXX.XX.OOOO..XX@OOOO..$$ ",
"                                                                "
};
