/* XPM */
static char *f4dadeb84a3e41f9d9925217c12813c551tUwAS2QvlGQWPq[] = {
/* columns rows colors chars-per-pixel */
"26 26 139 2 ",
"   c black",
".  c #C3E619",
"X  c #B3CF2A",
"o  c #B6D327",
"O  c #C3E619",
"+  c #C3E619",
"@  c #B3CF2A",
"#  c #B3CF2A",
"$  c #C3E619",
"%  c #C3E619",
"&  c #C3E619",
"*  c #C3E619",
"=  c #C3E619",
"-  c #B3CF2A",
";  c #B3CF2A",
":  c #B3CF2A",
">  c #B3CF2A",
",  c #B3CF2A",
"<  c #C3E619",
"1  c #C3E619",
"2  c #C3E619",
"3  c #B3CF2A",
"4  c #B3CF2A",
"5  c #B3CF2A",
"6  c #C3E619",
"7  c #C3E619",
"8  c None",
"9  c #B3CF2A",
"0  c #B3CF2A",
"q  c #B3CF2A",
"w  c #C3E619",
"e  c #BCDC20",
"r  c #B4D128",
"t  c #C4E718",
"y  c #CAF011",
"u  c #C3E619",
"i  c #BDDD20",
"p  c #B3CF2A",
"a  c #C3E61A",
"s  c #C4E71B",
"d  c #D1EF42",
"f  c #DFF767",
"g  c #C9EA29",
"h  c #C3E618",
"j  c #C4E71D",
"k  c #CAEA2D",
"l  c #D7F353",
"z  c #E2F971",
"x  c #C9EA2B",
"c  c #BEDF1E",
"v  c #B6D327",
"b  c #B4D029",
"n  c #E7FD7F",
"m  c #C5E71E",
"M  c #C5E819",
"N  c #C6E919",
"B  c #C4E71A",
"V  c #C2E41A",
"C  c #B7D525",
"Z  c #CDEC35",
"A  c #C4E719",
"S  c #88A011",
"D  c #60710C",
"F  c #B8D625",
"G  c #C0E219",
"H  c #B8D818",
"J  c #465209",
"K  c black",
"L  c #B7D818",
"P  c #B5D324",
"I  c #C8EC1A",
"U  c #98B414",
"Y  c #2A3105",
"T  c #0F1102",
"R  c #96B116",
"E  c #C2E420",
"W  c #62730D",
"Q  c #010100",
"!  c #62740C",
"~  c #95AF17",
"^  c #B1CC28",
"/  c #272D09",
"(  c #A8C328",
")  c #B4D02A",
"_  c #879F11",
"`  c #445009",
"'  c #0E1102",
"]  c #0D0F03",
"[  c #3F480F",
"{  c #7C8F1D",
"}  c #B5D12A",
"|  c #C5E919",
" . c #6C7F0E",
".. c #101302",
"X. c #040501",
"o. c #040401",
"O. c #0F1104",
"+. c #637217",
"@. c #B5D22B",
"#. c #B8D918",
"$. c #A0BD15",
"%. c #222804",
"&. c #1F2407",
"*. c #93AA23",
"=. c #A9C328",
"-. c #262D05",
";. c #2E3706",
":. c #4D5B0A",
">. c #232908",
",. c #A9C428",
"<. c #B4D12A",
"1. c #B7D817",
"2. c #778D0F",
"3. c #C7EB19",
"4. c #A8C227",
"5. c #B7D717",
"6. c #242B05",
"7. c #768B0F",
"8. c #C6EA19",
"9. c #212608",
"0. c #B9DA18",
"q. c #455109",
"w. c #869E11",
"e. c #242B04",
"r. c #424D0C",
"t. c #AAC528",
"y. c #C2E519",
"u. c #BEE018",
"i. c #B6D61B",
"p. c #B3D029",
"a. c #BEDF1F",
"s. c #BAD923",
"d. c #C3E519",
"f. c #B3CE2A",
"g. c #BFE01D",
"h. c #B9D823",
"j. c #BCDC21",
"k. c #BFE01E",
"l. c white",
/* pixels */
"      . . . . O + u u u u u i p p @ # X X X X       ",
"  . . . $ % & * = u u u u u i p p - ; : > , X X X   ",
"  . . < 1 2 a s u u u u u u i p p p p p 3 4 5 X X   ",
". . < 6 7 8 d f g h u u u u i p p p p p 9 0 q 5 X X ",
". $ 1 7 j k l z x h u u u u c v b p p p p p 0 4 , X ",
". % 2 8 k n l m a u u M N N B V C p p p p p 9 3 > X ",
". & a d l l Z h u u A S D D S A F p p p p p p p : X ",
"O * s f z m h u u G H J K K J L P b p p p p p p ; # ",
"+ = u g x a u u I U Y T K K T Y R E b p p p p p - @ ",
"u u u h h u u G U W Q K K K K Q ! ~ ^ p p p p p p p ",
"u u u u u u A H Y Q K K K K K K Q / ( ) p p p p p p ",
"u u u u u M _ ` ' K K K K K K K K ] [ { } p p p p p ",
"u u u u u |  ...X.K K K K K K K K o.O.+.@.p p p p p ",
"u u u u u u #.$.%.K K K K K K K K &.*.=.p p p p p p ",
"u u u u u u M #.-.K K ;.:.:.;.K K >.,.<.p p p p p p ",
"u u u u u u A 1.-.K K 2.3.3.2.K K >.4.) p p p p p p ",
"u u u u u u A 5.6.K K 7.8.8.7.K K 9.4.) p p p p p p ",
"+ = u u u u A 0.q.6.-.w.N N w.-.e.r.t.) p p p p - @ ",
"O * u u u u u y.0.5.1.u.u u u.1.1.i.p.p p p p p ; # ",
". & u u u u u u A A A u u u u A a.s.b p p p p p : X ",
". % 2 w u u u u u u u u u u u d.C f.p p p p 9 3 > X ",
". $ 1 7 u u u u u u u u u u u d.F p p p p p 0 4 , X ",
". . < 6 7 w u u u u u u u u u d.F p p p 9 0 q 5 X X ",
"  . . < 1 2 u u u u u u u u u u F p p p 3 4 5 X X   ",
"  . . . $ % & * = u u u u u g.h.j.e r : > , X X X   ",
"      . . . . O + u u u u u i p k.t y o X X X       "
};
