/* XPM */
static char *result[] = {
/* columns rows colors chars-per-pixel */
"64 64 39 1 ",
"  c #0D0F0F",
". c #071213",
"X c #121515",
"o c #171B1B",
"O c #381A13",
"+ c #3A1A13",
"@ c #3B1A13",
"# c #202628",
"$ c #202728",
"% c #202729",
"& c #222728",
"* c #333838",
"= c #31383A",
"- c #33383A",
"; c #33393A",
": c #33383B",
"> c #702E15",
", c #722E14",
"< c #722E15",
"1 c #732E15",
"2 c #612D3F",
"3 c #566164",
"4 c #566165",
"5 c #6C7678",
"6 c #6C767A",
"7 c #6D767A",
"8 c #6C767B",
"9 c #6E767A",
"0 c #9B0C2E",
"q c #86593B",
"w c #B0B08F",
"e c #9FBABA",
"r c #9FBBBA",
"t c #DEAA87",
"y c #EFEECB",
"u c #EFEFCB",
"i c #F0F2CB",
"p c #F1F2CB",
"a c None",
/* pixels */
"aaaaaaaaaaaaaaaaaaaaaaaaaaaaaaaaaaaaaaaaaaaaaaaaaaaaaaaaaaaaaaaa",
"aaaaaaaaaaaaaaaaaaaaaaaaaaaaaaaaaaaaaaaaaaaaaaaaaaaaaaaaaaaaaaaa",
"aaaaaaaaaaaaaaaaaaaaaaaaaaaaaaaaaaaaaaaaaaaaaaaaaaaaaaaaaaaaaaaa",
"aaaaaaaaaaaaaaaaaaaaaaaaaaaaaaaaaaaaaaaaaaaaaaaaaaaaaaaaaaaaaaaa",
"aaaaaaaaaaaaaaaaaaaaaaaaaaaaaaaaaaaaaaaaaaaaaaaaaaaaaaaaaaaaaaaa",
"aaaaaaaaaaaaaaaaaaaaaaaaaaaaaaaaaaaaaaaaaaaaaaaaaaaaaaaaaaaaaaaa",
"aaaaaaaaaaaaaaaaaaaaaaaaaaaaaaaaaaaaaaaaaaaaaaaaaaaaaaaaaaaaaaaa",
"aaaaaaaaaaaaaaaaaaaaaaaaaaaaaaaaaaaaaaaaaaaaaaaaaaaaaaaaaaaaaaaa",
"aaaaaaaaaaaaaaaaaaaaaaaaaaaaaaaaaaaaaaaaaaaaaaaaaaaaaaaaaaaaaaaa",
"aaaaaaaaaaaaaaaaaaaaaaaaaaaaaaaaaaaaaaaaaaaaaaaaaaaaaaaaaaaaaaaa",
"aaaaaaaaaaaaaaaaaaaaaaaaaaaaaaaaaaaaaaaaaaaaaaaaaaaaaaaaaaaaaaaa",
"aaaaaaaaaaaaaaaaaaaaaaaaaaaaaaaaaaaaaaaaaaaaaaaaaaaaaaaaaaaaaaaa",
"aaaaaaaaaaaaaaaaaaaaaaaaaaar66aaaaaaaaaaaaaaaaaaaaaaaaaaaaaaaaaa",
"aaaaaaaaaaaaaaaaaaaaaaar--r6--aaaaaaaaaaaaaaaaaaaaaaaaaaaaaaaaaa",
"aaaaaaaaaaaaaaaaaaaaar-r-666--aaaaaaaaaaaaaaaaaaaaaaaaaaaaaaaaaa",
"aaaaaaaaaaaaaaaaaaaaa6-6-66-Xaaaaaaaaaaaaaaaaaaaaaaaaaaaaaaaaaaa",
"aaaaaaaaaaaaaaaaaaaaa6-6r8-XXaaaaaaaaaaaaaaaaaaaaaaaaaaaaaaaaaaa",
"aaaaaaaaaaaaaaaaaaaaaarirr6--Xaaaaaaaaaaaaaaaaaaaaaaaaaaaaaaaaaa",
"aaaaaaaaaaaaaaaaaaaaaaaarX-7XXXaaaaaaaaaaaaaaaaaaaaaaaaaaaaaaaaa",
"aaaaaaaaaaaaaaaaaaaaaaaa6XX--XXaaaaaaaaaaaaaaaaaaaaaaaaaaaaaaaaa",
"aaaaaaaaaaaaaaaaaaaaaaaaXXX-XXXXaaaaaaaaaaaaaaaaaaaaaaaaaaaaaaaa",
"aaaaaaaaaaaaaaaaaaaaaaaaXX-6-XX66r66*666aaaaaaaaaaaaaaaaaaaaaaaa",
"aaaaaaaaaaaaaaaaaaaaaaaa666XX-6-r666-6666aaaaaaaaaaaaaaaaaaaaaaa",
"aaaaaaaaaaaaaaaaaaaaaaaaaXX--6--r9666=66r-9aaaaaaaaaaaaaaaaaaaaa",
"aaaaaaaaaaaaaaaaaaaaaaaaa--6r6XXr6666-66r-66aaaaaaaaaaaaaaaaaaaa",
"aaaaaaaaaaaaaaaaaaaaaaaap-ppr6XXXr666-6r-666aaaaaaaaaaaaaaaaaaaa",
"aaaaaaaaaaaaaaaaaaaaaaaap-prrr6---rerXXr-66r-..aaaaaaaaaaaaaaaaa",
"aaaaaaaaaaaaaaaaaaaqqaaar-prrr6-XXXXXaaaX6r;tt.aaaaaaaaaaaaaaaaa",
"aaaaaaaaaaaaaaaaaaaqqqaaor-prr6XXXXXXaaaaX..ttaaaaaaaaaaaaaaaaaa",
"aaaaaaaaaaaaaaaaaaaqqq o or-r6XX-:XXXaaaaa00.taa00aaaaaaaaaaaaaa",
"aaaaaaaaaaaaaaaaaaaaqq oo or----XXXXXaaaaau0.0002aaaaaaaaaaaaaaa",
"aaaaaaaaaaaaaaaaaaaaaao o  a56--*--Xaaaaa22w0222aaaaaaaaaaaaaaaa",
"aaaaaaaaaaaaaaaaaaaaaaaaooaa=---XXXXaaaaauw2aaaaaaaaaaaaaaaaaaaa",
"aaaaaaaaaaaaaaaaaaaaaaaaaaa<66--XXXXaaaauuwaaaaaaaaaaaaaaaaaaaaa",
"aaaaaaaaaaaaaaaaaaaaaaaaaa+<------X<+aaauwaaaaaaaaaaaaaaaaaaaaaa",
"aaaaaaaaaaaaaaaaaaaaaaaaaa++<<<<<<<O+aauuwaaaaaaaaaaaaaaaaaaaaaa",
"aaaaaaaaaaaaaaaaaaaaaaaaaa<<+++++++++aauwaaaaaaaaaaaaaaaaaaaaaaa",
"aaaaaaaaaaaaaaaaaaaaaaaaaa<<<<<<<++<+auuwaaaaaaaaaaaaaaaaaaaaaaa",
"aaaaaaaaaaaaaaaaaaaaaaaaa<<<<<<<<<<+++uwaaaaaaaaaaaaaaaaaaaaaaaa",
"aaaaaaaaaaaaaaaaaaaaaaaa<<<<<<<<<<<<+uuwaaaaaaaaaaaaaaaaaaaaaaaa",
"aaaaaaaaaaaaaaaaaaaaaaaa<<1<<<<<<<<<+uwaaaaaaaaaaaaaaaaaaaaaaaaa",
"aaaaaaaaaaaaaaaaaaaaaa<<<<<<<<<<<<<+yuwaaaaaaaaaaaaaaaaaaaaaaaaa",
"aaaaaaaaaaaaaaaaaaaaaa<<<<<+<<><<<<@uw+aaaaaaaaaaaaaaaaaaaaaaaaa",
"aaaaaaaaaaaaaaaaaaaaaa4<<<<++<<<<,<uuwaaaaaaaaaaaaaaaaaaaaaaaaaa",
"aaaaaaaaaaaaaaaaaaaaaa4<<<<+++<<<<<uw o ooaaaaaaaaaaaaaaaaaaaaaa",
"aaaaaaaaaaaaaaaaaaaaaa4443<aa+++<<<++oo oo   aaaaaaaaaaaaaaaaaaa",
"aaaaaaaaaaaaaaaaaaaaaar444aaaaa++aooooo ooo    aaaaaaaaaaaaaaaaa",
"aaaaaaaaaaaaaaaaaaaaaar444aaaaaaaaaooooo oo    aaaaaaaaaaaaaaaaa",
"aaaaaaaaaaaaaaaaaaaaaa$444aaaaaaaaaaaaaaaaaaa  aaaaaaaaaaaaaaaaa",
"aaaaaaaaaaaaaaaaaaaaaar#$&aaaaaaaaaaaaaaaaaaaaaaaaaaaaaaaaaaaaaa",
"aaaaaaaaaaaaaaaaaaaaaar44aaaaaaaaaaaaaaaaaaaaaaaaaaaaaaaaaaaaaaa",
"aaaaaaaaaaaaaaaaaaaaar444aaaaaaaaaaaaaaaaaaaaaaaaaaaaaaaaaaaaaaa",
"aaaaaaaaaaaaaaaaaaaaa$444aaaaaaaaaaaaaaaaaaaaaaaaaaaaaaaaaaaaaaa",
"aaaaaaaaaaaaaaaaaaaaa$%$aaaaaaaaaaaaaaaaaaaaaaaaaaaaaaaaaaaaaaaa",
"aaaaaaaaaaaaaaaaaaaaa$$aaaaaaaaaaaaaaaaaaaaaaaaaaaaaaaaaaaaaaaaa",
"aaaaaaaaaaaaaaaaaaa44$$aaaaaaaaaaaaaaaaaaaaaaaaaaaaaaaaaaaaaaaaa",
"aaaaaaaaaaaaaaaaaaa$$$aaaaaaaaaaaaaaaaaaaaaaaaaaaaaaaaaaaaaaaaaa",
"aaaaaaaaaaaaaaaaaaaaaaaaaaaaaaaaaaaaaaaaaaaaaaaaaaaaaaaaaaaaaaaa",
"aaaaaaaaaaaaaaaaaaaaaaaaaaaaaaaaaaaaaaaaaaaaaaaaaaaaaaaaaaaaaaaa",
"aaaaaaaaaaaaaaaaaaaaaaaaaaaaaaaaaaaaaaaaaaaaaaaaaaaaaaaaaaaaaaaa",
"aaaaaaaaaaaaaaaaaaaaaaaaaaaaaaaaaaaaaaaaaaaaaaaaaaaaaaaaaaaaaaaa",
"aaaaaaaaaaaaaaaaaaaaaaaaaaaaaaaaaaaaaaaaaaaaaaaaaaaaaaaaaaaaaaaa",
"aaaaaaaaaaaaaaaaaaaaaaaaaaaaaaaaaaaaaaaaaaaaaaaaaaaaaaaaaaaaaaaa",
"aaaaaaaaaaaaaaaaaaaaaaaaaaaaaaaaaaaaaaaaaaaaaaaaaaaaaaaaaaaaaaaa"
};
