/* XPM */
static char *_cf1035c3064483288bee9e5d3e41cd36VYXd9O1YDBF9jUd[] = {
/* columns rows colors chars-per-pixel */
"64 64 24 1 ",
"  c None",
". c #13111C",
"X c #11131C",
"o c #13131C",
"O c #13131D",
"+ c #13131E",
"@ c #27130F",
"# c #293757",
"$ c #8E5250",
"% c #8E5252",
"& c #8F5252",
"* c #CC8B7E",
"= c #CD8B7E",
"- c #4A6082",
"; c #6985A0",
": c #E9B5A1",
"> c #E8B5A3",
", c #E9B5A3",
"< c #F4CDA9",
"1 c #F4CFA9",
"2 c #F6CFA9",
"3 c #94AFC0",
"4 c #FFFEFE",
"5 c white",
/* pixels */
"                                                                ",
"                                                                ",
"                                                                ",
"                                                                ",
"                                                                ",
"                                                                ",
"                                                                ",
"                                                                ",
"                                                                ",
"                                                                ",
"                                                                ",
"                              ooooo                             ",
"                             o%***%o                            ",
"                            o******%o                           ",
"                            o*11,***o                           ",
"                            o1111,**o                           ",
"                            oo*ooo*%o                           ",
"                            o@1%@**,o                           ",
"                            %11,,,*,o                           ",
"                            o*55*,%o                            ",
"                            o*,,,%o                             ",
"                             oo%%oo                             ",
"                            oo%%%oooo                           ",
"                           o%*%%**,11o                          ",
"                          o,11*111111,o                         ",
"                         o11111111111,o                         ",
"                         o11,,111,*,,,o                         ",
"                         o*,,,,,**o,11,o                        ",
"                          o%***%%oo%11,o                        ",
"                          o******%%o,11o                        ",
"                          o*,*,,*%%o*11o                        ",
"                          o%,,,,*%o o,,o                        ",
"                          oo111,%%o o11o                        ",
"                         ooo111,%%o o11o                        ",
"                         ooo1*1,%*ooo1,o                        ",
"                        o%oo,%,,**oo*,o                         ",
"                        o*o-3333;#o,11o                         ",
"                       o**o;33333;o%11o                         ",
"                       o*oo;3333--o,1%o                         ",
"                        ooo#;33-##*ooo                          ",
"                          o11###11,o                            ",
"                          o11,o*11,o                            ",
"                          o,,,oo,,,o                            ",
"                          o,,,oo,,,%o                           ",
"                          o,,%oo%,*%o                           ",
"                          o,*%o o**%o                           ",
"                          o%**% o%%%o                           ",
"                           o**%  o**o                           ",
"                           o**o  o**o                           ",
"                           o**o  o%*%o                          ",
"                           o*%o   o**o                          ",
"                           o*o    o**o                          ",
"                          o%%o    o*,*o                         ",
"                         o,**o    o%,,o                         ",
"                                                                ",
"                                                                ",
"                                                                ",
"                                                                ",
"                                                                ",
"                                                                ",
"                                                                ",
"                                                                ",
"                                                                ",
"                                                                "
};
