/* XPM */
static char *robot11713780027[] = {
/* columns rows colors chars-per-pixel */
"64 64 16 1 ",
"  c None",
". c gray20",
"X c #484848",
"o c gray32",
"O c #535353",
"+ c #5F5F5F",
"@ c gray39",
"# c #777777",
"$ c #872F00",
"% c #AF4F00",
"& c #EB6300",
"* c #FF9747",
"= c gray55",
"- c #979797",
"; c #BBBBBB",
": c #CBCBCB",
/* pixels */
"                                                                ",
"                                                                ",
"                                                                ",
"                                                                ",
"                                                                ",
"                                                                ",
"                                                                ",
"                                                                ",
"                                                                ",
"                                                                ",
"                                                                ",
"                                                                ",
"                                                                ",
"                                                                ",
"                                                                ",
"                                                                ",
"                                                                ",
"                                                                ",
"                           ..........                           ",
"                          .OOOOOOOOOO.                          ",
"                         .OO##-::-##OO.                         ",
"                        ..O###-::-###O..                        ",
"                       O..O#.OO##OO.#O..O                       ",
"                       O...O%&****&%O...O                       ",
"                      .@$.O%&*&&&&*&%O.$@.                      ",
"                      ..%.O%&*&%%&*&%O.%..                      ",
"                    OOX.%..###-::-###..%.XOO                    ",
"                  OO#-XO$.$@###::###@$.$OX-#OO                  ",
"                 O@#--=-..@...O##O...@..-=--#@O                 ",
"                O@@##-+#O..O#--::--#O..O#+-##@@O                ",
"                O@@@@#+#O...O#----#O...O#+#@@@@O                ",
"               O.O@@@#O@##OOOOOOOOOOOO##@O#@@@O.O               ",
"              O@@.OO@@O#O.....O..O.....O#O@@OO.@@O              ",
"             O@@@@@#O@O@.-;;;--OO--;;;-.@O@O#@@@@@O             ",
"             O@@@@@#O@X@@#---##OO##---#@@X@O#@@@@@O             ",
"             @@@@#--#O.O@#---##OO##---#@O.O#--#@@@@             ",
"             O@@###-##@.###-###OO###-###.@##-###@@O             ",
"             O@O@##-#@@O@######OO######@O@@#-##@O@O             ",
"             OOO@@@#@@O.@@#@@@@..@@@@#@@.O@@#@@@OOO             ",
"              OOO@@O...;O@@@@@O..O@@@@@O;...O@@OOO              ",
"             O@OOOO..  -.O@@@@O..O@@@@O.-  ..OOOO@O             ",
"             O@@OO..   #.OO@@O.##.O@@OO.#   ..OO@@O             ",
"             O@##@OO   O...@#.@@@@.#@...O   OO@##@O             ",
"             O@##@O    O.....OOOOOO.....O    O@##@O             ",
"             O@##@O    .......O##O.......    O@##@O             ",
"             O@#-###OO OO..#.O@@@@O.#..OO OO###-#@O             ",
"              O#--##@O  O.@..........@.O  O@##--#O              ",
"              OO#-#@@O XO@O..........O@OX O@@#-#OO              ",
"               O@#@@O  O#-#OO@O..O@OO#-#O  O@@#@O               ",
"               O@@@OO  O#;#O@@O..O@@O#;#O  OO@@@O               ",
"               OO@@OO  X@#@@#@O..O@#@@#@X  OO@@OO               ",
"                OO  O  XO#O#-@O  O@-#O#OX OO OO                 ",
"                 OO OO X@@O-;@O  O@;-O@@X                       ",
"                       O@#@OOO    OOO@#@O                       ",
"                      O@#-##@O    O@##-#@O                      ",
"                      O@--#OO      OO#--@O                      ",
"                     O@@-#@OO      OO@#-@@O                     ",
"                     O@@;-@OO      OO@-;@@O                     ",
"                    OOO@;@@OO      OO@@;@OOO                    ",
"                    OOO-;#OOO      OOO#;-OOO                    ",
"                    OOOOOOOOOO    OOOOOOOOOO                    ",
"                   O@@#---#@@O    O@@#---#@@O                   ",
"                   OOOOOOOOOOO    OOOOOOOOOOO                   ",
"                                                                "
};
