/* XPM */
static char *_fe4ab10d56d48eede634958807e3ac9pJeVmKpVcRD66yx2[] = {
/* columns rows colors chars-per-pixel */
"64 64 36 1 ",
"  c None",
". c #0D0F0F",
"X c #071213",
"o c #121515",
"O c #171B1B",
"+ c #381A13",
"@ c #3A1A13",
"# c #3B1A13",
"$ c #202628",
"% c #202728",
"& c #202729",
"* c #222728",
"= c #333838",
"- c #31383A",
"; c #33383A",
": c #33393A",
"> c #702E15",
", c #722E14",
"< c #722E15",
"1 c #732E15",
"2 c #612D3F",
"3 c #566164",
"4 c #566165",
"5 c #6C7678",
"6 c #6C767A",
"7 c #6D767A",
"8 c #6C767B",
"9 c #6E767A",
"0 c #9B0C2E",
"q c #86593B",
"w c #B0B08F",
"e c #9FBABA",
"r c #9FBBBA",
"t c #DEAA87",
"y c #EFEFCB",
"u c #F1F2CB",
/* pixels */
"                                                                ",
"                                                                ",
"                                                                ",
"                                                                ",
"                                                                ",
"                                                                ",
"                                                                ",
"                                                                ",
"                                                                ",
"                                                                ",
"                                                                ",
"                                                                ",
"                                  99r                           ",
"                                  ;;9r;;r                       ",
"                                  ;;999;r;r                     ",
"                                   o;99;9;9                     ",
"                                   oo;9r9;9                     ",
"                                  o;;9rrur                      ",
"                                 ooo9;or                        ",
"                                 oo;;oo9                        ",
"                                oooo;ooo                        ",
"                        699;99r99oo;9;oo                        ",
"                       9669;999r;9;oo999                        ",
"                     9;r66;9999r;;9;;oo                         ",
"                    99;r99;9999roo9r9;;                         ",
"                    999;r9;999rooo9ruu;u                        ",
"                 XX;r99;roorrr;;;9rrru;u                        ",
"                 Xtt;r9o   ooooo;9rrru;r   qq                   ",
"                  ttXXo    oooooo9rru;rO  qqq                   ",
"              00  tX00     ooo;;oo9r;rO.O.qqq                   ",
"               2000X0y     ooooo;;;;rO.OO.qq                    ",
"                2220w22     o;;;;;99 ..O.O                      ",
"                    2wy     oooo;;;;  OO                        ",
"                     wyy    oooo;;99<                           ",
"                      wy   @<o;;;;;;<@                          ",
"                      wyy  @@<<<<<<<@@                          ",
"                       wy  @@@@@@@@@<<                          ",
"                       wyy @<@@<<<<<<<                          ",
"                        wy@@@<<<<<<<<<<                         ",
"                        wyy@<<<<<<<<<<<<                        ",
"                         wy@<<<<<<<<<<<<                        ",
"                         wyy@<<<<<<<<<<<<<                      ",
"                         @wy@<<<<<<<@<<<<<                      ",
"                          wyy<<<<<<@@<<<<4                      ",
"                      OO.O.wy<<<<<@@@<<<<4                      ",
"                   ...OO.OO@@<<<@@@  <4444                      ",
"                 ....OOO.OOOOO @@     444r                      ",
"                 ....OO.OOOOO         444r                      ",
"                 ..                   444%                      ",
"                                      %%%r                      ",
"                                       44r                      ",
"                                       444r                     ",
"                                       444%                     ",
"                                        %%%                     ",
"                                         %%                     ",
"                                         %%44                   ",
"                                          %%%                   ",
"                                                                ",
"                                                                ",
"                                                                ",
"                                                                ",
"                                                                ",
"                                                                ",
"                                                                "
};
