/* XPM */
static char *_90957d18700407acb41fd03f7a4927fxYI4NuwiksLzeOq4[] = {
/* columns rows colors chars-per-pixel */
"64 64 33 1 ",
"  c None",
". c #13131C",
"X c #13131D",
"o c #18131C",
"O c #27130F",
"+ c #131320",
"@ c #181820",
"# c #181821",
"$ c #293757",
"% c #2E3C57",
"& c #895252",
"* c #8E5252",
"= c #8C5454",
"- c #C7867C",
"; c #C7867E",
": c #C78B7E",
"> c #CC8B7E",
", c #CC8B7F",
"< c #4A6080",
"1 c #4A6082",
"2 c #69809B",
"3 c #6985A0",
"4 c #CC8B80",
"5 c #E4B09E",
"6 c #E9B4A3",
"7 c #E9B5A3",
"8 c #EFCAA4",
"9 c #EFCAA9",
"0 c #F4CAA9",
"q c #F4CFA9",
"w c #94AFC0",
"e c #FFFFFA",
"r c white",
/* pixels */
"                                                                ",
"                                                                ",
"                                                                ",
"                                                                ",
"                                                                ",
"                                                                ",
"                                                                ",
"                                                                ",
"                                                                ",
"                                                                ",
"                             .....                              ",
"                            .*>>>&.                             ",
"                           .*>>>>>;.                            ",
"                           o>>>6qq;.                            ",
"                           o>>6qqq8.                            ",
"                           .*;..o;..                            ",
"                           @6>;O*8O.                            ",
"                           @6>666q0=                            ",
"                            .*64re;.                            ",
"                             .*666;.                            ",
"                             ..*&..                             ",
"                           ....**&..                            ",
"                          @qq6>>**>&.                           ",
"                         @6qqqqqq>qq5.                          ",
"                         @6qqqqqqqqqq8.                         ",
"                         @666>6qqq66q8.                         ",
"                        @6qq5o>>66666;.                         ",
"                        @6q0&..**>>>&.                          ",
"                        @qq5.**>>>>>;.                          ",
"                        @qq;.**>66>6;.                          ",
"                        @65. .*>6666&.                          ",
"                        @q8. .**6qq8..                          ",
"                        @q8. .**6qq8...                         ",
"                        @68..o>*6q>8...                         ",
"                         @6;.o>>66*5..&.                        ",
"                         @qq5.$3wwww1o;.                        ",
"                         @q0&+3wwwww2o>;.                       ",
"                         .*q5.11wwww2.o;.                       ",
"                          ..o:$$1ww3$...                        ",
"                            @6q9$$%q8.                          ",
"                            @6qq;@6q8.                          ",
"                            @665.@665.                          ",
"                           .*665.@665.                          ",
"                           .*>6&..*65.                          ",
"                           .*>;. .*>5.                          ",
"                           .**&. *>>&.                          ",
"                           o>;.  *>;.                           ",
"                           o>;.  o>;.                           ",
"                          .*>&.  o>;.                           ",
"                          o>;.   .*;.                           ",
"                          o>;.    o;.                           ",
"                         o>6;.    .*&.                          ",
"                         @66&.    o>>5.                         ",
"                                                                ",
"                                                                ",
"                                                                ",
"                                                                ",
"                                                                ",
"                                                                ",
"                                                                ",
"                                                                ",
"                                                                ",
"                                                                ",
"                                                                "
};
