/* XPM */
static char *bf0817eb03f74cb4a6d7faefbca74d4dCsZfXr6mg0E4gz0C[] = {
/* columns rows colors chars-per-pixel */
"40 26 96 2 ",
"   c #1D281A",
".  c #1E291B",
"X  c #1F2A1C",
"o  c #202B1D",
"O  c #212C1E",
"+  c #222D1F",
"@  c #232E20",
"#  c #232F21",
"$  c #242F21",
"%  c #243022",
"&  c #253022",
"*  c #253123",
"=  c #263123",
"-  c #263224",
";  c #273224",
":  c #283325",
">  c #293426",
",  c #2A3527",
"<  c #2A3628",
"1  c #2B3628",
"2  c #2C3729",
"3  c #2D382A",
"4  c #2D392B",
"5  c #2E392B",
"6  c #2E3A2C",
"7  c #2F3A2C",
"8  c #303B2D",
"9  c #313C2E",
"0  c #323D2F",
"q  c #323E30",
"w  c #333E30",
"e  c #333F31",
"r  c #343F31",
"t  c #354032",
"y  c #364133",
"u  c #374234",
"i  c #374335",
"p  c #384335",
"a  c #384436",
"s  c #394436",
"d  c #394537",
"f  c #3A4537",
"g  c #3A4638",
"h  c #3B4638",
"j  c #3B4739",
"k  c #3C4739",
"l  c #3D483A",
"z  c #3E493B",
"x  c #3E4A3C",
"c  c #3F4A3C",
"v  c #3F4B3D",
"b  c #404B3D",
"n  c #404C3E",
"m  c #414C3E",
"M  c #414D3F",
"N  c #424D3F",
"B  c #424E40",
"V  c #434E40",
"C  c #434F41",
"Z  c #444F41",
"A  c #455042",
"S  c #455143",
"D  c #465143",
"F  c #465244",
"G  c #475244",
"H  c #475345",
"J  c #485345",
"K  c #485446",
"L  c #495446",
"P  c #495547",
"I  c #4A5547",
"U  c #4A5648",
"Y  c #4B5648",
"T  c #4B5749",
"R  c #4C5749",
"E  c #4C584A",
"W  c #4D584A",
"Q  c #4D594B",
"!  c #4E594B",
"~  c #4E5A4C",
"^  c #4F5A4C",
"/  c #4F5B4D",
"(  c #505B4D",
")  c #515C4E",
"_  c #525D4F",
"`  c #535E50",
"'  c #545F51",
"]  c #556052",
"[  c #566153",
"{  c #576254",
"}  c #576355",
"|  c #586355",
" . c #596456",
".. c #5A6557",
"X. c #5B6658",
"o. c #606B5D",
/* pixels */
"c ( ' ' c ! R ` b J ' b ! A J _ [ Z J ( ` A b ..b ^ G G R ..^ N ^ ^ ! c ! ! { G ",
"5 ( G ( A l N 8   b I u ! r Z ^ ^ G l N 9 $ 9 [ u I l u ` J ^ s N s 1 = N ! G ^ ",
"@ 2 8 N l l p y c s ! 7 u 2 , 8 y I y A r c p I w w r ; 9 y G u G w c 1 = w s G ",
"2 h 7 A h ! { R Y o 5 c J h s 9 N b c ` Y _ , : s J V y y p N k ^ Y ! c s 7 c V ",
"y [ u G 9 8 l 8 N ; + p ! c ^ N h c = V 5 V 5 o 1 ^ N J ! 9 Y = h w h c Y V h V ",
"s ( c ! l = @ w c r h , b y I A I N , : : V 9 Z : w l l R N ^ 1 ; @ h V Y V I I ",
"w ^ k ! b 7 8 y G N _ A [ p I N N _ 9 8 5 ^ p ! J [ Z l ( l ^ u w 5 G u G A V ^ ",
"5 A r ! h A Y l N c I y G y N l l I s _ l V s ! h c N y A w R k ! N c s c N h I ",
"7 y s G w p w y 9 y u s y 9 u y A k y y y w 8 k s y r 8 y b N 9 y s 9 9 p p l b ",
"N [ _ b 5 X.Y Y { A ( [ ..V ( _ I 2 ^ [ N | I ! _ X.Y ! _ _ s s o.l { I ' _ I u ",
", h : = , ( y u c = N b J N y w = = A N 5 A 1 r Z A G 9 s 1 X u ! 8 N s 7 9 1 @ ",
"l _ V R k p k k h ; ; 2 b y R Y I G 8 N s h 9 = , y b V R N ( w c u h l Y ! A R ",
"8 R Z R r   8 I Y p ( u ( k N I N Z   + A ' w ! h I c s ` N I = X h [ b k _ l R ",
"@ , = h w 5 + k A l ^ w J 1 , 1 9 l 5 : 8 A s _ k l l o 2 : c 5 5 = Z s + 5 , I ",
"+ = : A s I h s N k ! I ..w ; @ l l N G 9 A u Y A | Z = = 5 I s R 7 A r $ + r ! ",
"5 Y y I G Y A ( ^ u [ r R b h b l ! Z ! I ..p Y c N I y J p Y l ( G [ A s V c ^ ",
"7 A s s 9 k w 9 9 w c y N 9 N l p y u s 5 y 8 h p k p h Z y s r k 9 w 7 l J r s ",
"u V V N N A A h I G Z w ! l b N b V A I l Z G ! u G G p Z k A Z R s Z I I b h N ",
"w | N h ` ` R N J Z , , | l A ` u ! ( _ V V J s + Y Y b [ h G ^ ` Y l G c ; l _ ",
", s 7 @ y y R w b 5 s p G s r r @ 9 y A s s p 5 y b V 1 s , ; u l V p b 5 u = y ",
"N A s 9 9 u l c ` R _ w 5 s N A 7 9 7 V k _ ! ( J ; y N I y 9 1 b k I ` I ( V I ",
"G ^ Z J Y s Y 2 l k b w + : Y R l [ r I 9 w b y c X o b ! k ` c b l : A y Z l ` ",
"w u l V A I J + ; + k y y 1 7 l l Y N ( 8 : + y l y r 1 k s Y b J N @ $ ; V , y ",
"A ( b N R c ' 1 5 , I b Y G Y J k R N ' p , : c N Z I N _ s I N _ Z 1 2 9 Y N ! ",
"A J c b Y p ! s ( V J b ^ l Z I u ( s R l I Y c I Z J b Y y I b N G V ( k J V _ ",
"y 5 7 5 9 7 y 2 r 7 9 : 9 1 5 5 1 u , s 5 9 9 9 5 5 5 5 7 , y 5 u 9 5 w 7 w 7 9 "
};
